# Blender 4.0.1
# www.blender.org
mtllib Box.mtl
o box
v 0.571385 0.054225 0.571385
v -0.571385 0.054225 0.571385
v 0.571385 0.054224 -0.571385
v -0.571385 0.054225 0.571385
v -0.571385 0.054224 -0.571385
v 0.571385 0.054224 -0.571385
v 0.571385 1.248291 -0.571385
v -0.571385 1.248291 -0.571385
v -0.571385 1.248291 0.571385
v 0.571385 1.248291 -0.571385
v -0.571385 1.248291 0.571385
v 0.571385 1.248291 0.571385
v -0.592065 1.197591 0.598736
v 0.591686 0.100612 0.598736
v 0.591686 1.197591 0.598736
v 0.591686 0.100612 0.598736
v -0.592065 1.197591 0.598736
v -0.592065 0.100612 0.598736
v 0.591686 1.197591 0.598736
v 0.591686 0.100612 0.598736
v 0.591686 1.197591 -0.595152
v 0.591686 1.197591 -0.595152
v 0.591686 0.100612 0.598736
v 0.591686 0.100612 -0.595152
v 0.591686 1.197591 -0.595152
v 0.591686 0.100612 -0.595152
v -0.592065 1.197591 -0.595152
v -0.592065 1.197591 -0.595152
v 0.591686 0.100612 -0.595152
v -0.592065 0.100612 -0.595152
v -0.592065 1.197591 -0.595152
v -0.592065 0.100612 0.598736
v -0.592065 1.197591 0.598736
v -0.592065 0.100612 0.598736
v -0.592065 1.197591 -0.595152
v -0.592065 0.100612 -0.595152
v 0.650000 1.300000 0.650000
v -0.650000 1.300000 0.650000
v -0.650000 1.197591 0.650000
v 0.650000 1.300000 0.650000
v -0.650000 1.197591 0.650000
v 0.650000 1.197591 0.650000
v -0.650000 0.100612 0.650000
v 0.650000 0.000000 0.650000
v 0.650000 0.100612 0.650000
v 0.650000 0.000000 0.650000
v -0.650000 0.100612 0.650000
v -0.650000 0.000000 0.650000
v 0.650000 1.300000 -0.650000
v 0.650000 1.300000 0.650000
v 0.650000 1.197591 0.650000
v 0.650000 1.300000 -0.650000
v 0.650000 1.197591 0.650000
v 0.650000 1.197591 -0.650000
v 0.650000 0.100612 -0.650000
v 0.650000 0.100612 0.650000
v 0.650000 0.000000 0.650000
v 0.650000 0.100612 -0.650000
v 0.650000 0.000000 0.650000
v 0.650000 -0.000000 -0.650000
v -0.650000 1.300000 -0.650000
v 0.650000 1.300000 -0.650000
v 0.650000 1.197591 -0.650000
v -0.650000 1.300000 -0.650000
v 0.650000 1.197591 -0.650000
v -0.650000 1.197591 -0.650000
v -0.650000 0.100612 -0.650000
v 0.650000 0.100612 -0.650000
v 0.650000 -0.000000 -0.650000
v -0.650000 0.100612 -0.650000
v 0.650000 -0.000000 -0.650000
v -0.650000 -0.000000 -0.650000
v -0.650000 1.300000 0.650000
v -0.650000 1.300000 -0.650000
v -0.650000 1.197591 -0.650000
v -0.650000 1.300000 0.650000
v -0.650000 1.197591 -0.650000
v -0.650000 1.197591 0.650000
v -0.650000 0.100612 0.650000
v -0.650000 0.100612 -0.650000
v -0.650000 -0.000000 -0.650000
v -0.650000 0.100612 0.650000
v -0.650000 -0.000000 -0.650000
v -0.650000 0.000000 0.650000
v -0.650000 1.197591 0.650000
v 0.591686 1.197591 0.598736
v 0.650000 1.197591 0.650000
v 0.591686 1.197591 0.598736
v -0.650000 1.197591 0.650000
v -0.592065 1.197591 0.598736
v -0.650000 1.197591 0.650000
v -0.650000 1.197591 -0.650000
v -0.592065 1.197591 -0.595152
v -0.650000 1.197591 0.650000
v -0.592065 1.197591 -0.595152
v -0.592065 1.197591 0.598736
v -0.650000 1.197591 -0.650000
v 0.650000 1.197591 -0.650000
v 0.591686 1.197591 -0.595152
v -0.650000 1.197591 -0.650000
v 0.591686 1.197591 -0.595152
v -0.592065 1.197591 -0.595152
v 0.650000 1.197591 0.650000
v 0.591686 1.197591 -0.595152
v 0.650000 1.197591 -0.650000
v 0.591686 1.197591 -0.595152
v 0.650000 1.197591 0.650000
v 0.591686 1.197591 0.598736
v -0.650000 0.100612 0.650000
v 0.650000 0.100612 0.650000
v 0.591686 0.100612 0.598736
v -0.650000 0.100612 0.650000
v 0.591686 0.100612 0.598736
v -0.592065 0.100612 0.598736
v 0.650000 0.100612 0.650000
v 0.650000 0.100612 -0.650000
v 0.591686 0.100612 -0.595152
v 0.650000 0.100612 0.650000
v 0.591686 0.100612 -0.595152
v 0.591686 0.100612 0.598736
v -0.650000 0.100612 -0.650000
v 0.591686 0.100612 -0.595152
v 0.650000 0.100612 -0.650000
v 0.591686 0.100612 -0.595152
v -0.650000 0.100612 -0.650000
v -0.592065 0.100612 -0.595152
v -0.650000 0.100612 0.650000
v -0.592065 0.100612 -0.595152
v -0.650000 0.100612 -0.650000
v -0.592065 0.100612 -0.595152
v -0.650000 0.100612 0.650000
v -0.592065 0.100612 0.598736
v -0.650000 0.000000 0.650000
v -0.650000 -0.000000 -0.650000
v -0.581385 -0.000000 -0.581385
v -0.650000 0.000000 0.650000
v -0.581385 -0.000000 -0.581385
v -0.581385 0.000000 0.581385
v -0.650000 -0.000000 -0.650000
v 0.650000 -0.000000 -0.650000
v 0.581385 -0.000000 -0.581385
v -0.650000 -0.000000 -0.650000
v 0.581385 -0.000000 -0.581385
v -0.581385 -0.000000 -0.581385
v 0.650000 -0.000000 -0.650000
v 0.650000 0.000000 0.650000
v 0.581385 0.000000 0.581385
v 0.650000 -0.000000 -0.650000
v 0.581385 0.000000 0.581385
v 0.581385 -0.000000 -0.581385
v 0.650000 0.000000 0.650000
v -0.650000 0.000000 0.650000
v -0.581385 0.000000 0.581385
v 0.650000 0.000000 0.650000
v -0.581385 0.000000 0.581385
v 0.581385 0.000000 0.581385
v -0.650000 1.300000 0.650000
v 0.650000 1.300000 0.650000
v 0.581385 1.300000 0.581385
v -0.650000 1.300000 0.650000
v 0.581385 1.300000 0.581385
v -0.581385 1.300000 0.581385
v 0.650000 1.300000 0.650000
v 0.650000 1.300000 -0.650000
v 0.581385 1.300000 -0.581385
v 0.650000 1.300000 0.650000
v 0.581385 1.300000 -0.581385
v 0.581385 1.300000 0.581385
v 0.650000 1.300000 -0.650000
v -0.650000 1.300000 -0.650000
v -0.581385 1.300000 -0.581385
v 0.650000 1.300000 -0.650000
v -0.581385 1.300000 -0.581385
v 0.581385 1.300000 -0.581385
v -0.650000 1.300000 -0.650000
v -0.650000 1.300000 0.650000
v -0.581385 1.300000 0.581385
v -0.650000 1.300000 -0.650000
v -0.581385 1.300000 0.581385
v -0.581385 1.300000 -0.581385
v -0.571385 0.054224 -0.571385
v -0.571385 0.054225 0.571385
v -0.581385 0.000000 0.581385
v -0.571385 0.054224 -0.571385
v -0.581385 0.000000 0.581385
v -0.581385 -0.000000 -0.581385
v 0.571385 0.054224 -0.571385
v -0.571385 0.054224 -0.571385
v -0.581385 -0.000000 -0.581385
v 0.571385 0.054224 -0.571385
v -0.581385 -0.000000 -0.581385
v 0.581385 -0.000000 -0.581385
v 0.571385 0.054225 0.571385
v 0.571385 0.054224 -0.571385
v 0.581385 -0.000000 -0.581385
v 0.571385 0.054225 0.571385
v 0.581385 -0.000000 -0.581385
v 0.581385 0.000000 0.581385
v -0.571385 0.054225 0.571385
v 0.571385 0.054225 0.571385
v 0.581385 0.000000 0.581385
v -0.571385 0.054225 0.571385
v 0.581385 0.000000 0.581385
v -0.581385 0.000000 0.581385
v -0.581385 1.300000 0.581385
v 0.581385 1.300000 0.581385
v 0.571385 1.248291 0.571385
v -0.581385 1.300000 0.581385
v 0.571385 1.248291 0.571385
v -0.571385 1.248291 0.571385
v 0.581385 1.300000 0.581385
v 0.581385 1.300000 -0.581385
v 0.571385 1.248291 -0.571385
v 0.581385 1.300000 0.581385
v 0.571385 1.248291 -0.571385
v 0.571385 1.248291 0.571385
v 0.581385 1.300000 -0.581385
v -0.581385 1.300000 -0.581385
v -0.571385 1.248291 -0.571385
v 0.581385 1.300000 -0.581385
v -0.571385 1.248291 -0.571385
v 0.571385 1.248291 -0.571385
v -0.581385 1.300000 -0.581385
v -0.581385 1.300000 0.581385
v -0.571385 1.248291 0.571385
v -0.581385 1.300000 -0.581385
v -0.571385 1.248291 0.571385
v -0.571385 1.248291 -0.571385
v -0.638564 1.227348 0.639846
v -0.638564 0.075446 0.639846
v -0.547938 1.227348 0.639846
v -0.547938 1.227348 0.639846
v -0.638564 0.075446 0.639846
v -0.547938 0.075446 0.639846
v -0.547938 1.227348 0.639846
v -0.547938 0.075446 0.639846
v -0.547938 1.227348 0.548101
v -0.547938 1.227348 0.548101
v -0.547938 0.075446 0.639846
v -0.547938 0.075446 0.548101
v -0.547938 1.227348 0.548101
v -0.547938 0.075446 0.548101
v -0.638564 1.227348 0.548101
v -0.638564 1.227348 0.548101
v -0.547938 0.075446 0.548101
v -0.638564 0.075446 0.548101
v -0.638564 1.227348 0.548101
v -0.638564 0.075446 0.548101
v -0.638564 1.227348 0.639846
v -0.638564 1.227348 0.639846
v -0.638564 0.075446 0.548101
v -0.638564 0.075446 0.639846
v -0.638564 1.227348 -0.546024
v -0.638564 0.075446 -0.546024
v -0.547938 1.227348 -0.546024
v -0.547938 1.227348 -0.546024
v -0.638564 0.075446 -0.546024
v -0.547938 0.075446 -0.546024
v -0.547938 1.227348 -0.546024
v -0.547938 0.075446 -0.546024
v -0.547938 1.227348 -0.637769
v -0.547938 1.227348 -0.637769
v -0.547938 0.075446 -0.546024
v -0.547938 0.075446 -0.637769
v -0.547938 1.227348 -0.637769
v -0.547938 0.075446 -0.637769
v -0.638564 1.227348 -0.637769
v -0.638564 1.227348 -0.637769
v -0.547938 0.075446 -0.637769
v -0.638564 0.075446 -0.637769
v -0.638564 1.227348 -0.637769
v -0.638564 0.075446 -0.637769
v -0.638564 1.227348 -0.546024
v -0.638564 1.227348 -0.546024
v -0.638564 0.075446 -0.637769
v -0.638564 0.075446 -0.546024
v 0.549337 1.227348 -0.547979
v 0.549337 0.075446 -0.547978
v 0.639964 1.227348 -0.547979
v 0.639964 1.227348 -0.547979
v 0.549337 0.075446 -0.547978
v 0.639964 0.075446 -0.547978
v 0.639964 1.227348 -0.547979
v 0.639964 0.075446 -0.639723
v 0.639964 1.227348 -0.639723
v 0.639964 0.075446 -0.639723
v 0.639964 1.227348 -0.547979
v 0.639964 0.075446 -0.547978
v 0.639964 1.227348 -0.639723
v 0.639964 0.075446 -0.639723
v 0.549337 1.227348 -0.639723
v 0.549337 1.227348 -0.639723
v 0.639964 0.075446 -0.639723
v 0.549337 0.075446 -0.639723
v 0.549337 1.227348 -0.639723
v 0.549337 0.075446 -0.639723
v 0.549337 1.227348 -0.547979
v 0.549337 1.227348 -0.547979
v 0.549337 0.075446 -0.639723
v 0.549337 0.075446 -0.547978
v 0.549337 1.227348 0.639846
v 0.549337 0.075446 0.639846
v 0.639964 1.227348 0.639846
v 0.639964 1.227348 0.639846
v 0.549337 0.075446 0.639846
v 0.639964 0.075446 0.639846
v 0.639964 1.227348 0.639846
v 0.639964 0.075446 0.639846
v 0.639964 1.227348 0.548101
v 0.639964 1.227348 0.548101
v 0.639964 0.075446 0.639846
v 0.639964 0.075446 0.548101
v 0.639964 1.227348 0.548101
v 0.639964 0.075446 0.548101
v 0.549337 1.227348 0.548101
v 0.549337 1.227348 0.548101
v 0.639964 0.075446 0.548101
v 0.549337 0.075446 0.548101
v 0.549337 1.227348 0.548101
v 0.549337 0.075446 0.548101
v 0.549337 1.227348 0.639846
v 0.549337 1.227348 0.639846
v 0.549337 0.075446 0.548101
v 0.549337 0.075446 0.639846
v 0.610685 0.186529 -0.620894
v -0.619508 1.132589 -0.620893
v -0.501571 1.256651 -0.620893
v -0.619508 1.132589 -0.620893
v 0.610685 0.186529 -0.620894
v 0.511069 0.047479 -0.620894
v -0.501571 1.256651 -0.579147
v 0.610685 0.186529 -0.579147
v 0.610685 0.186529 -0.620894
v -0.501571 1.256651 -0.579147
v 0.610685 0.186529 -0.620894
v -0.501571 1.256651 -0.620893
v -0.619508 1.132589 -0.579147
v 0.511069 0.047479 -0.620894
v 0.511069 0.047479 -0.579147
v 0.511069 0.047479 -0.620894
v -0.619508 1.132589 -0.579147
v -0.619508 1.132589 -0.620893
v -0.615928 1.125055 0.622892
v 0.610377 0.166799 0.622892
v -0.504297 1.247443 0.622892
v 0.610377 0.166799 0.622892
v -0.615928 1.125055 0.622892
v 0.516665 0.023521 0.622892
v -0.504297 1.247443 0.622892
v 0.610377 0.166799 0.622892
v 0.610377 0.166799 0.581496
v -0.504297 1.247443 0.622892
v 0.610377 0.166799 0.581496
v -0.504297 1.247443 0.581496
v 0.516665 0.023521 0.622892
v -0.615928 1.125055 0.622892
v -0.615928 1.125055 0.581497
v 0.516665 0.023521 0.622892
v -0.615928 1.125055 0.581497
v 0.516665 0.023521 0.581496
v 0.165302 1.281399 -0.588785
v 0.165302 1.281399 0.585696
v 0.325757 1.281399 -0.588785
v 0.325757 1.281399 -0.588785
v 0.165302 1.281399 0.585696
v 0.325757 1.281399 0.585696
v 0.325757 1.281399 0.585696
v 0.325757 1.235360 -0.588785
v 0.325757 1.281399 -0.588785
v 0.325757 1.235360 -0.588785
v 0.325757 1.281399 0.585696
v 0.325757 1.235360 0.585696
v 0.165302 1.281399 0.585696
v 0.165302 1.281399 -0.588785
v 0.165302 1.235360 -0.588785
v 0.165302 1.281399 0.585696
v 0.165302 1.235360 -0.588785
v 0.165302 1.235360 0.585696
v -0.302261 1.281399 -0.588785
v -0.302261 1.281399 0.585696
v -0.141806 1.281399 -0.588785
v -0.141806 1.281399 -0.588785
v -0.302261 1.281399 0.585696
v -0.141806 1.281399 0.585696
v -0.141806 1.281399 0.585696
v -0.141806 1.235360 -0.588785
v -0.141806 1.281399 -0.588785
v -0.141806 1.235360 -0.588785
v -0.141806 1.281399 0.585696
v -0.141806 1.235360 0.585696
v -0.302261 1.281399 0.585696
v -0.302261 1.281399 -0.588785
v -0.302261 1.235360 -0.588785
v -0.302261 1.281399 0.585696
v -0.302261 1.235360 -0.588785
v -0.302261 1.235360 0.585696
v -0.141806 0.017751 -0.588785
v -0.141806 0.017751 0.585696
v -0.302261 0.017751 -0.588785
v -0.302261 0.017751 -0.588785
v -0.141806 0.017751 0.585696
v -0.302261 0.017751 0.585696
v -0.302261 0.017751 0.585696
v -0.302261 0.063790 -0.588785
v -0.302261 0.017751 -0.588785
v -0.302261 0.063790 -0.588785
v -0.302261 0.017751 0.585696
v -0.302261 0.063790 0.585696
v -0.141806 0.017751 0.585696
v -0.141806 0.017751 -0.588785
v -0.141806 0.063790 -0.588785
v -0.141806 0.017751 0.585696
v -0.141806 0.063790 -0.588785
v -0.141806 0.063790 0.585696
v 0.325757 0.017751 -0.588785
v 0.325757 0.017751 0.585696
v 0.165302 0.017751 -0.588785
v 0.165302 0.017751 -0.588785
v 0.325757 0.017751 0.585696
v 0.165302 0.017751 0.585696
v 0.165302 0.017751 0.585696
v 0.165302 0.063790 -0.588785
v 0.165302 0.017751 -0.588785
v 0.165302 0.063790 -0.588785
v 0.165302 0.017751 0.585696
v 0.165302 0.063790 0.585696
v 0.325757 0.017751 0.585696
v 0.325757 0.017751 -0.588785
v 0.325757 0.063790 -0.588785
v 0.325757 0.017751 0.585696
v 0.325757 0.063790 -0.588785
v 0.325757 0.063790 0.585696
vn -0.0000 -1.0000 -0.0000
vn -0.0000 1.0000 -0.0000
vn -0.0000 -0.0000 1.0000
vn -0.0000 -0.0000 -1.0000
vn 1.0000 -0.0000 -0.0000
vn -1.0000 -0.0000 -0.0000
vn 0.6933 0.7206 -0.0000
vn -0.6925 -0.7215 -0.0000
vn 0.6961 0.7180 -0.0000
vn -0.6972 -0.7169 -0.0000
vn 0.9834 -0.1814 -0.0000
vn -0.9834 -0.1814 -0.0000
vn -0.0000 0.1899 -0.9818
vn -0.0000 -0.1814 0.9834
vn -0.0000 -0.1814 -0.9834
vn -0.9818 0.1899 -0.0000
vn 0.9818 0.1899 -0.0000
vn -0.0000 0.1899 0.9818
vt 0.833496 0.664795
vt 0.833496 0.817505
vt 0.681152 0.664795
vt 0.681152 0.817505
vt 0.832031 0.821533
vt 0.832031 0.974228
vt 0.679688 0.974228
vt 0.679688 0.821533
vt 0.986816 0.988861
vt 0.840332 0.830688
vt 0.986816 0.830688
vt 0.840332 0.988861
vt 0.840332 0.508789
vt 0.986816 0.508789
vt 0.840332 0.666992
vt 0.986816 0.666992
vt 0.396729 0.429688
vt 0.583496 0.429688
vt 0.583496 0.444336
vt 0.396729 0.444336
vt 0.583496 0.410645
vt 0.396729 0.425293
vt 0.396729 0.410645
vt 0.583496 0.425293
vt 0.583496 0.355469
vt 0.396729 0.355469
vt 0.396729 0.340820
vt 0.583496 0.340820
vt 0.583496 0.247559
vt 0.396729 0.247559
vt 0.396729 0.232910
vt 0.583496 0.232910
vt 0.578613 0.514160
vt 0.392090 0.514160
vt 0.401855 0.504395
vt 0.392090 0.457520
vt 0.578613 0.457520
vt 0.568848 0.467773
vt 0.578613 0.491211
vt 0.392090 0.491211
vt 0.401855 0.480957
vt 0.392090 0.607422
vt 0.578613 0.607422
vt 0.568848 0.617188
vt 0.588379 0.645508
vt 0.781738 0.645508
vt 0.588379 0.660645
vt 0.781738 0.660645
vt 0.594238 0.394043
vt 0.787598 0.394043
vt 0.594238 0.409180
vt 0.787598 0.409180
vt 0.594238 0.377441
vt 0.787598 0.377441
vt 0.594238 0.392578
vt 0.787598 0.392578
vt 0.588379 0.585205
vt 0.781738 0.585205
vt 0.588379 0.600586
vt 0.781738 0.600586
vt 0.588379 0.546875
vt 0.781738 0.546875
vt 0.588379 0.562256
vt 0.781738 0.562256
vt 0.594238 0.432129
vt 0.787598 0.432129
vt 0.594238 0.447266
vt 0.787598 0.447266
vt 0.594238 0.492188
vt 0.787598 0.492188
vt 0.594238 0.507568
vt 0.787598 0.507568
vt 0.206665 0.923340
vt 0.000607 0.945923
vt 0.000500 0.923035
vt 0.209961 0.945923
vt 0.001169 0.888611
vt 0.207886 0.910706
vt 0.000500 0.910767
vt 0.212280 0.888245
vt 0.216309 0.946594
vt 0.373291 0.946594
vt 0.216309 0.968018
vt 0.373291 0.968018
vt 0.216309 0.920471
vt 0.373291 0.920471
vt 0.216309 0.941925
vt 0.373291 0.941925
vt 0.986816 0.345215
vt 0.840332 0.345215
vt 0.986816 0.185547
vt 0.840332 0.185547
vt 0.513672 0.815796
vt 0.673828 0.669922
vt 0.672852 0.816528
vt 0.514160 0.669189
vt 0.392090 0.546631
vt 0.578613 0.546631
vt 0.578613 0.561279
vt 0.392090 0.561279
vt 0.392090 0.565186
vt 0.578613 0.565186
vt 0.578613 0.579834
vt 0.392090 0.579834
vt 0.578613 0.542480
vt 0.392090 0.542480
vt 0.392090 0.527832
vt 0.578613 0.527832
vt 0.583496 0.200684
vt 0.396729 0.200684
vt 0.396729 0.186035
vt 0.583496 0.186035
vt 0.583496 0.397461
vt 0.396729 0.397461
vt 0.406494 0.387695
vt 0.396729 0.373535
vt 0.583496 0.373535
vt 0.573730 0.383301
vt 0.583496 0.369141
vt 0.396729 0.369141
vt 0.406494 0.359375
vt 0.392090 0.593262
vt 0.578613 0.593262
vt 0.568848 0.603271
vt 0.594238 0.355469
vt 0.787598 0.355469
vt 0.594238 0.371094
vt 0.787598 0.371094
vt 0.594238 0.470703
vt 0.787598 0.470703
vt 0.594238 0.485840
vt 0.787598 0.485840
vt 0.588379 0.623535
vt 0.781738 0.623535
vt 0.588379 0.638916
vt 0.781738 0.638916
vt 0.588379 0.563477
vt 0.781738 0.563477
vt 0.588379 0.578857
vt 0.781738 0.578857
vt 0.781738 0.540527
vt 0.588379 0.525146
vt 0.781738 0.525146
vt 0.588379 0.617188
vt 0.781738 0.601562
vt 0.781738 0.617188
vt 0.594238 0.410156
vt 0.787598 0.410156
vt 0.594238 0.425781
vt 0.787598 0.425781
vt 0.594238 0.448730
vt 0.787598 0.448730
vt 0.594238 0.463867
vt 0.787598 0.463867
vt 0.206665 0.972122
vt 0.000500 0.966553
vt 0.206665 0.966553
vt 0.209839 0.949158
vt 0.000500 0.954742
vt 0.000500 0.949158
vt 0.207886 0.963379
vt 0.000500 0.963379
vt 0.000500 0.957855
vt 0.207886 0.957855
vt 0.211548 0.919861
vt 0.000500 0.919861
vt 0.000500 0.914368
vt 0.211548 0.914368
vt 0.386963 0.648682
vt 0.575684 0.641357
vt 0.575684 0.648682
vt 0.386963 0.641357
vt 0.528809 0.983383
vt 0.371826 0.983383
vt 0.371826 0.977234
vt 0.528809 0.977234
vt 0.210815 0.977051
vt 0.367676 0.970901
vt 0.367676 0.977051
vt 0.210815 0.970901
vt 0.574707 0.667725
vt 0.385498 0.667725
vt 0.385498 0.660400
vt 0.574707 0.660400
vt 0.578613 0.471680
vt 0.400391 0.479004
vt 0.392090 0.471680
vt 0.583496 0.273438
vt 0.396729 0.273438
vt 0.405029 0.265625
vt 0.575195 0.265625
vt 0.578613 0.502441
vt 0.392090 0.502441
vt 0.400391 0.495117
vt 0.570312 0.495117
vt 0.578613 0.518555
vt 0.400391 0.526367
vt 0.392090 0.518555
vt 0.570312 0.526367
vt 0.390137 0.630127
vt 0.574219 0.630127
vt 0.575684 0.638916
vt 0.532227 0.917725
vt 0.379639 0.917725
vt 0.378174 0.910339
vt 0.570312 0.479004
vt 0.583496 0.408691
vt 0.396729 0.408691
vt 0.404541 0.400391
vt 0.576172 0.400391
vt 0.388428 0.638916
vt 0.533691 0.910339
vt 0.777832 0.068848
vt 0.622559 0.068848
vt 0.624023 0.061523
vt 0.776367 0.061523
vt 0.588379 0.508789
vt 0.781738 0.508789
vt 0.588379 0.523926
vt 0.781738 0.523926
vt 0.583496 0.456055
vt 0.396729 0.456055
vt 0.404541 0.447754
vt 0.576172 0.447754
vt 0.578613 0.583984
vt 0.399902 0.592285
vt 0.392090 0.583984
vt 0.571289 0.592285
vt 0.583496 0.321777
vt 0.404541 0.330078
vt 0.396729 0.321777
vt 0.576172 0.330078
vt 0.568848 0.504395
vt 0.573730 0.387695
vt 0.401855 0.467773
vt 0.406494 0.383301
vt 0.573730 0.359375
vt 0.568848 0.480957
vt 0.401855 0.603271
vt 0.401855 0.617188
vt 0.588379 0.540527
vt 0.588379 0.601562
vt 0.000500 0.972122
vt 0.209839 0.954742
vt 0.535156 0.987328
vt 0.746094 0.987328
vt 0.747559 0.997503
vt 0.667969 0.865723
vt 0.457031 0.865723
vt 0.455322 0.855591
vt 0.533203 0.997503
vt 0.669922 0.855591
vt 0.668945 0.906555
vt 0.456543 0.896851
vt 0.667480 0.896851
vt 0.388916 0.619873
vt 0.576172 0.619873
vt 0.574219 0.628418
vt 0.390381 0.628418
vt 0.454590 0.906555
vt 0.454590 0.883728
vt 0.668945 0.883728
vt 0.667480 0.893433
vt 0.456543 0.893433
s 0
f 1/1/1 2/2/1 3/3/1
f 4/2/1 5/4/1 6/3/1
f 7/5/2 8/6/2 9/7/2
f 10/5/2 11/7/2 12/8/2
f 13/9/3 14/10/3 15/11/3
f 16/10/3 17/9/3 18/12/3
f 25/13/4 26/14/4 27/15/4
f 28/15/4 29/14/4 30/16/4
f 37/17/3 38/18/3 39/19/3
f 40/17/3 41/19/3 42/20/3
f 43/21/3 44/22/3 45/23/3
f 46/22/3 47/21/3 48/24/3
f 61/25/4 62/26/4 63/27/4
f 64/25/4 65/27/4 66/28/4
f 67/29/4 68/30/4 69/31/4
f 70/29/4 71/31/4 72/32/4
f 133/33/1 134/34/1 135/35/1
f 145/36/1 146/37/1 147/38/1
f 163/39/2 164/40/2 165/41/2
f 175/42/2 176/43/2 177/44/2
f 229/45/3 230/46/3 231/47/3
f 232/47/3 233/46/3 234/48/3
f 241/49/4 242/50/4 243/51/4
f 244/51/4 245/50/4 246/52/4
f 253/53/3 254/54/3 255/55/3
f 256/55/3 257/54/3 258/56/3
f 265/57/4 266/58/4 267/59/4
f 268/59/4 269/58/4 270/60/4
f 277/61/3 278/62/3 279/63/3
f 280/63/3 281/62/3 282/64/3
f 301/65/3 302/66/3 303/67/3
f 304/67/3 305/66/3 306/68/3
f 313/69/4 314/70/4 315/71/4
f 316/71/4 317/70/4 318/72/4
f 325/73/4 326/74/4 327/75/4
f 328/74/4 329/73/4 330/76/4
f 343/77/3 344/78/3 345/79/3
f 346/78/3 347/77/3 348/80/3
f 361/81/2 362/82/2 363/83/2
f 364/83/2 365/82/2 366/84/2
f 379/85/2 380/86/2 381/87/2
f 382/87/2 383/86/2 384/88/2
f 397/81/1 398/82/1 399/83/1
f 400/83/1 401/82/1 402/84/1
f 415/85/1 416/86/1 417/87/1
f 418/87/1 419/86/1 420/88/1
s 1
f 19/89/5 20/90/5 21/91/5
f 22/91/5 23/90/5 24/92/5
f 31/93/6 32/94/6 33/95/6
f 34/94/6 35/93/6 36/96/6
f 49/97/5 50/98/5 51/99/5
f 52/97/5 53/99/5 54/100/5
f 55/101/5 56/102/5 57/103/5
f 58/101/5 59/103/5 60/104/5
f 73/105/6 74/106/6 75/107/6
f 76/105/6 77/107/6 78/108/6
f 79/109/6 80/110/6 81/111/6
f 82/109/6 83/111/6 84/112/6
f 139/113/1 140/114/1 141/115/1
f 151/116/1 152/117/1 153/118/1
f 157/119/2 158/120/2 159/121/2
f 169/122/2 170/123/2 171/124/2
f 235/125/5 236/126/5 237/127/5
f 238/127/5 239/126/5 240/128/5
f 247/129/6 248/130/6 249/131/6
f 250/131/6 251/130/6 252/132/6
f 259/133/5 260/134/5 261/135/5
f 262/135/5 263/134/5 264/136/5
f 271/137/6 272/138/6 273/139/6
f 274/139/6 275/138/6 276/140/6
f 286/141/5 287/142/5 288/143/5
f 298/144/6 299/145/6 300/146/6
f 307/147/5 308/148/5 309/149/5
f 310/149/5 311/148/5 312/150/5
f 319/151/6 320/152/6 321/153/6
f 322/153/6 323/152/6 324/154/6
f 334/155/7 335/156/7 336/157/7
f 340/158/8 341/159/8 342/160/8
f 349/161/9 350/162/9 351/163/9
f 352/161/9 353/163/9 354/164/9
f 355/165/10 356/166/10 357/167/10
f 358/165/10 359/167/10 360/168/10
f 367/169/5 368/170/5 369/171/5
f 370/170/5 371/169/5 372/172/5
f 373/173/6 374/174/6 375/175/6
f 376/173/6 377/175/6 378/176/6
f 385/177/5 386/178/5 387/179/5
f 388/178/5 389/177/5 390/180/5
f 391/181/6 392/182/6 393/183/6
f 394/181/6 395/183/6 396/184/6
f 403/169/6 404/170/6 405/171/6
f 406/170/6 407/169/6 408/172/6
f 409/173/5 410/174/5 411/175/5
f 412/173/5 413/175/5 414/176/5
f 421/177/6 422/178/6 423/179/6
f 424/178/6 425/177/6 426/180/6
f 427/181/5 428/182/5 429/183/5
f 430/181/5 431/183/5 432/184/5
f 85/185/1 86/186/1 87/187/1
f 97/188/1 98/189/1 99/190/1
f 100/188/1 101/190/1 102/191/1
f 109/192/2 110/193/2 111/194/2
f 112/192/2 113/194/2 114/195/2
f 121/196/2 122/197/2 123/198/2
f 124/197/2 125/196/2 126/199/2
f 181/200/11 182/201/11 183/202/11
f 193/203/12 194/204/12 195/205/12
f 88/186/1 89/185/1 90/206/1
f 115/207/2 116/208/2 117/209/2
f 118/207/2 119/209/2 120/210/2
f 184/200/11 185/202/11 186/211/11
f 196/203/12 197/205/12 198/212/12
f 205/213/13 206/214/13 207/215/13
f 208/213/13 209/215/13 210/216/13
f 289/217/4 290/218/4 291/219/4
f 292/219/4 293/218/4 294/220/4
f 91/221/1 92/222/1 93/223/1
f 94/221/1 95/223/1 96/224/1
f 103/225/1 104/226/1 105/227/1
f 106/226/1 107/225/1 108/228/1
f 127/229/2 128/230/2 129/231/2
f 130/230/2 131/229/2 132/232/2
f 136/33/1 137/35/1 138/233/1
f 142/113/1 143/115/1 144/234/1
f 148/36/1 149/38/1 150/235/1
f 154/116/1 155/118/1 156/236/1
f 160/119/2 161/121/2 162/237/2
f 166/39/2 167/41/2 168/238/2
f 172/122/2 173/124/2 174/239/2
f 178/42/2 179/44/2 180/240/2
f 283/142/5 284/141/5 285/241/5
f 295/242/6 296/145/6 297/144/6
f 331/155/7 332/243/7 333/156/7
f 337/159/8 338/158/8 339/244/8
f 187/245/14 188/246/14 189/247/14
f 199/248/15 200/249/15 201/250/15
f 190/245/14 191/247/14 192/251/14
f 202/248/15 203/250/15 204/252/15
f 214/253/16 215/254/16 216/255/16
f 223/256/17 224/257/17 225/258/17
f 226/256/17 227/258/17 228/259/17
f 211/253/16 212/260/16 213/254/16
f 217/261/18 218/262/18 219/263/18
f 220/261/18 221/263/18 222/264/18
