# Blender 4.0.1
# www.blender.org
mtllib grass.mtl
o grass
v 0.262109 0.375122 0.034902
v 0.399453 0.532012 0.034902
v 0.211286 0.444728 0.034902
v 0.211286 0.444728 0.034902
v 0.082018 -0.010472 0.000000
v 0.262109 0.375122 0.034902
v 0.211286 0.444728 0.034902
v 0.056607 0.109957 -0.000000
v 0.082018 -0.010472 0.000000
v -0.221817 -0.010472 0.000000
v -0.208558 0.038142 -0.000000
v -0.242738 0.174392 -0.006260
v -0.307924 0.186545 -0.006260
v -0.221817 -0.010472 0.000000
v -0.242738 0.174392 -0.006260
v -0.307924 0.186545 -0.006260
v -0.242738 0.174392 -0.006260
v -0.367657 0.301097 -0.012669
v -0.367657 0.301097 -0.012669
v -0.449603 0.328718 -0.012669
v -0.307924 0.186545 -0.006260
v 0.125068 -0.010472 0.120635
v 0.119465 0.038142 0.108619
v 0.128236 0.174392 0.142241
v 0.155785 0.186545 0.201320
v 0.125068 -0.010472 0.120635
v 0.128236 0.174392 0.142241
v 0.155785 0.186545 0.201320
v 0.128236 0.174392 0.142241
v 0.175221 0.301097 0.258165
v 0.175221 0.301097 0.258165
v 0.209853 0.328718 0.332433
v 0.155785 0.186545 0.201320
v -0.229632 0.375122 0.285358
v -0.317915 0.532012 0.390569
v -0.196964 0.444728 0.246425
v -0.196964 0.444728 0.246425
v -0.087135 -0.010472 0.169834
v -0.229632 0.375122 0.285358
v -0.196964 0.444728 0.246425
v -0.070801 0.109957 0.150368
v -0.087135 -0.010472 0.169834
v -0.211873 0.738619 0.048585
v -0.206481 0.555035 0.043877
v -0.067137 0.164095 -0.000000
v -0.067137 0.164095 -0.000000
v -0.206481 0.555035 0.043877
v -0.098074 -0.010471 0.000000
v -0.067137 0.164095 -0.000000
v -0.098074 -0.010471 0.000000
v -0.000846 -0.008262 0.000000
v -0.000846 -0.008262 0.000000
v -0.017419 0.284524 -0.000000
v -0.067137 0.164095 -0.000000
v -0.017419 0.284524 -0.000000
v -0.000846 -0.008262 0.000000
v 0.041138 0.290048 -0.000000
v 0.041138 0.290048 -0.000000
v 0.047767 0.395010 -0.000000
v -0.017419 0.284524 -0.000000
v 0.041138 0.290048 -0.000000
v 0.182560 0.475664 -0.000000
v 0.047767 0.395010 -0.000000
v 0.047767 0.395010 -0.000000
v -0.036201 0.773975 -0.044885
v -0.017419 0.284524 -0.000000
v 0.309618 0.250274 -0.000000
v 0.262109 0.375122 0.034902
v 0.263214 0.146417 -0.000000
v 0.263214 0.146417 -0.000000
v 0.296360 0.060239 -0.000000
v 0.309618 0.250274 -0.000000
v 0.263214 0.146417 -0.000000
v 0.233383 -0.010472 0.000000
v 0.296360 0.060239 -0.000000
v 0.263214 0.146417 -0.000000
v 0.209076 0.000577 -0.000000
v 0.233383 -0.010472 0.000000
v -0.094455 0.250274 -0.214414
v -0.055545 0.375122 -0.170128
v -0.090411 0.146417 -0.168187
v -0.090411 0.146417 -0.168187
v -0.093300 0.060239 -0.201206
v -0.094455 0.250274 -0.214414
v -0.090411 0.146417 -0.168187
v -0.087811 -0.010472 -0.138469
v -0.093300 0.060239 -0.201206
v -0.090411 0.146417 -0.168187
v -0.085692 0.000577 -0.114255
v -0.087811 -0.010472 -0.138469
vn -0.0000 -0.0000 1.0000
vn -0.0753 -0.0550 0.9956
vn -0.1530 -0.0323 0.9877
vn -0.0874 0.0238 0.9959
vn 0.0228 0.0677 0.9974
vn 0.8943 0.0677 -0.4422
vn -0.7143 -0.0550 -0.6977
vn 0.2057 -0.0364 0.9779
vn -0.1439 0.0849 0.9859
vn 0.9066 -0.1416 -0.3974
vn 0.9962 -0.0000 -0.0872
vn 0.0064 0.0346 0.9994
vn 0.9395 0.0238 -0.3417
vn 0.9030 0.0346 -0.4282
vn 0.8996 0.0619 -0.4322
vn -0.7660 -0.0000 -0.6428
vn -0.6583 -0.0323 -0.7521
vn 0.2559 -0.0173 0.9665
vn 0.3169 -0.1416 0.9378
vn 0.0115 0.0619 0.9980
vt 0.463135 0.613281
vt 0.548340 0.697998
vt 0.434814 0.652588
vt 0.358887 0.399902
vt 0.343994 0.466797
vt 0.180176 0.399902
vt 0.187988 0.426758
vt 0.164551 0.501709
vt 0.094421 0.572754
vt 0.046295 0.588867
vt 0.126221 0.508301
vt 0.271240 0.497070
vt 0.182373 0.735352
vt 0.252930 0.399902
vt 0.310059 0.401367
vt 0.300293 0.563721
vt 0.334717 0.566650
vt 0.338623 0.625000
vt 0.291992 0.835327
vt 0.465576 0.486816
vt 0.484863 0.438965
vt 0.492676 0.550293
vt 0.447998 0.399902
vt 0.186035 0.807495
vt 0.418945 0.668701
vt 0.433594 0.406250
s 0
f 1/1/1 2/2/1 3/3/1
f 4/3/2 5/4/2 6/1/2
f 7/3/3 8/5/3 9/4/3
f 10/6/4 11/7/4 12/8/4
f 19/9/5 20/10/5 21/11/5
f 31/9/6 32/10/6 33/11/6
f 37/3/7 38/4/7 39/1/7
f 46/12/8 47/13/8 48/14/8
f 52/15/1 53/16/1 54/12/1
f 58/17/1 59/18/1 60/16/1
f 64/18/9 65/19/9 66/16/9
f 70/20/1 71/21/1 72/22/1
f 79/22/10 80/1/10 81/20/10
f 82/20/11 83/21/11 84/22/11
f 85/20/11 86/23/11 87/21/11
s 1
f 13/11/12 14/6/12 15/8/12
f 22/6/13 23/7/13 24/8/13
f 25/11/14 26/6/14 27/8/14
f 28/11/15 29/8/15 30/9/15
f 34/1/16 35/2/16 36/3/16
f 40/3/17 41/5/17 42/4/17
f 43/24/18 44/13/18 45/12/18
f 49/12/1 50/14/1 51/15/1
f 55/16/1 56/15/1 57/17/1
f 61/17/1 62/25/1 63/18/1
f 67/22/19 68/1/19 69/20/19
f 73/20/1 74/23/1 75/21/1
f 76/20/1 77/26/1 78/23/1
f 88/20/11 89/26/11 90/23/11
f 16/11/20 17/8/20 18/9/20
