# Blender 4.0.1
# www.blender.org
mtllib JugBroken.mtl
o SM_jug_broken_03
v 0.230421 0.242093 0.209110
v 0.205222 0.254353 0.239870
v 0.216858 0.245240 0.256437
v 0.216858 0.245240 0.256437
v 0.242611 0.230723 0.223774
v 0.230421 0.242093 0.209110
v 0.017928 0.258111 -0.275546
v 0.052575 0.333400 -0.291704
v 0.053215 0.331396 -0.269602
v 0.053215 0.331396 -0.269602
v 0.016095 0.263557 -0.254101
v 0.017928 0.258111 -0.275546
v 0.216858 0.245240 0.256437
v 0.205222 0.254353 0.239870
v 0.118509 0.202169 0.272797
v 0.118509 0.202169 0.272797
v 0.125817 0.193112 0.291704
v 0.216858 0.245240 0.256437
v 0.125817 0.193112 0.291704
v 0.118509 0.202169 0.272797
v -0.012926 0.157990 0.272695
v -0.012926 0.157990 0.272695
v -0.012589 0.146524 0.291704
v 0.125817 0.193112 0.291704
v -0.143525 0.124561 0.255408
v -0.012589 0.146524 0.291704
v -0.012926 0.157990 0.272695
v -0.012926 0.157990 0.272695
v -0.138306 0.137042 0.237805
v -0.143525 0.124561 0.255408
v -0.143525 0.124561 0.255408
v -0.138306 0.137042 0.237805
v -0.243663 0.131901 0.188030
v -0.243663 0.131901 0.188030
v -0.259233 0.120181 0.198666
v -0.143525 0.124561 0.255408
v -0.259233 0.120181 0.198666
v -0.243663 0.131901 0.188030
v -0.221134 0.064971 0.117411
v -0.221134 0.064971 0.117411
v -0.235270 0.048991 0.123552
v -0.259233 0.120181 0.198666
v -0.235270 0.048991 0.123552
v -0.221134 0.064971 0.117411
v -0.212888 0.040473 0.020943
v -0.212888 0.040473 0.020943
v -0.226499 0.022934 0.020943
v -0.235270 0.048991 0.123552
v -0.226499 0.022934 0.020943
v -0.212888 0.040473 0.020943
v -0.221134 0.064971 -0.075524
v -0.221134 0.064971 -0.075524
v -0.235270 0.048991 -0.081665
v -0.226499 0.022934 0.020943
v -0.235270 0.048991 -0.081665
v -0.221134 0.064971 -0.075524
v -0.243663 0.131901 -0.146144
v -0.243663 0.131901 -0.146144
v -0.259233 0.120181 -0.156779
v -0.235270 0.048991 -0.081665
v -0.259233 0.120181 -0.156779
v -0.243663 0.131901 -0.146144
v -0.274437 0.223328 -0.171992
v -0.274437 0.223328 -0.171992
v -0.291966 0.217428 -0.184273
v -0.259233 0.120181 -0.156779
v 0.110874 0.230231 -0.237662
v 0.128885 0.221145 -0.232475
v 0.138109 0.218587 -0.247410
v 0.138109 0.218587 -0.247410
v 0.114897 0.225555 -0.258989
v 0.110874 0.230231 -0.237662
v 0.016095 0.263557 -0.254101
v 0.110874 0.230231 -0.237662
v 0.114897 0.225555 -0.258989
v 0.114897 0.225555 -0.258989
v 0.017928 0.258111 -0.275546
v 0.016095 0.263557 -0.254101
v 0.137446 0.199770 -0.245312
v 0.138109 0.218587 -0.247410
v 0.128885 0.221145 -0.232475
v 0.128885 0.221145 -0.232475
v 0.126839 0.205730 -0.229845
v 0.137446 0.199770 -0.245312
v 0.132292 0.173877 -0.229522
v 0.137446 0.199770 -0.245312
v 0.126839 0.205730 -0.229845
v 0.126839 0.205730 -0.229845
v 0.126295 0.188404 -0.213841
v 0.132292 0.173877 -0.229522
v 0.143348 0.141030 -0.194864
v 0.132292 0.173877 -0.229522
v 0.126295 0.188404 -0.213841
v 0.126295 0.188404 -0.213841
v 0.137036 0.155437 -0.179196
v 0.143348 0.141030 -0.194864
v 0.209757 0.121075 -0.124187
v 0.143348 0.141030 -0.194864
v 0.137036 0.155437 -0.179196
v 0.137036 0.155437 -0.179196
v 0.196143 0.135952 -0.114901
v 0.209757 0.121075 -0.124187
v 0.209195 0.073265 0.020943
v 0.209757 0.121075 -0.124187
v 0.196143 0.135952 -0.114901
v 0.196143 0.135952 -0.114901
v 0.194920 0.090163 0.022831
v 0.209195 0.073265 0.020943
v 0.171811 0.056470 0.066285
v 0.209195 0.073265 0.020943
v 0.194920 0.090163 0.022831
v 0.194920 0.090163 0.022831
v 0.163453 0.076224 0.060555
v 0.171811 0.056470 0.066285
v 0.163947 0.079833 0.158283
v 0.171811 0.056470 0.066285
v 0.163453 0.076224 0.060555
v 0.163453 0.076224 0.060555
v 0.155208 0.099424 0.152561
v 0.163947 0.079833 0.158283
v 0.186041 0.102865 0.171670
v 0.163947 0.079833 0.158283
v 0.155208 0.099424 0.152561
v 0.155208 0.099424 0.152561
v 0.173268 0.115487 0.158615
v 0.186041 0.102865 0.171670
v 0.242611 0.230723 0.223774
v 0.186041 0.102865 0.171670
v 0.173268 0.115487 0.158615
v 0.173268 0.115487 0.158615
v 0.230421 0.242093 0.209110
v 0.242611 0.230723 0.223774
v -0.186710 0.252857 -0.249794
v -0.291966 0.217428 -0.184273
v -0.274437 0.223328 -0.171992
v -0.274437 0.223328 -0.171992
v -0.178248 0.255705 -0.229467
v -0.186710 0.252857 -0.249794
v -0.186710 0.252857 -0.249794
v -0.178248 0.255705 -0.229467
v -0.059294 0.295745 -0.269755
v -0.059294 0.295745 -0.269755
v -0.062458 0.294680 -0.291704
v -0.186710 0.252857 -0.249794
v 0.052575 0.333400 -0.291704
v -0.062458 0.294680 -0.291704
v -0.059294 0.295745 -0.269755
v -0.059294 0.295745 -0.269755
v 0.053215 0.331396 -0.269602
v 0.052575 0.333400 -0.291704
v -0.062458 0.294680 -0.291704
v 0.052575 0.333400 -0.291704
v 0.017928 0.258111 -0.275546
v -0.012589 0.146524 -0.249817
v -0.062458 0.294680 -0.291704
v 0.017928 0.258111 -0.275546
v -0.186710 0.252857 -0.249794
v -0.062458 0.294680 -0.291704
v -0.012589 0.146524 -0.249817
v 0.114897 0.225555 -0.258989
v -0.012589 0.146524 -0.249817
v 0.017928 0.258111 -0.275546
v -0.259233 0.120181 -0.156779
v -0.291966 0.217428 -0.184273
v -0.186710 0.252857 -0.249794
v 0.114897 0.225555 -0.258989
v 0.138109 0.218587 -0.247410
v 0.137446 0.199770 -0.245312
v -0.186710 0.252857 -0.249794
v -0.143525 0.124561 -0.213522
v -0.259233 0.120181 -0.156779
v -0.012589 0.146524 -0.249817
v -0.143525 0.124561 -0.213522
v -0.186710 0.252857 -0.249794
v -0.235270 0.048991 -0.081665
v -0.259233 0.120181 -0.156779
v -0.143525 0.124561 -0.213522
v 0.137446 0.199770 -0.245312
v 0.125817 0.193111 -0.249817
v 0.114897 0.225555 -0.258989
v 0.114897 0.225555 -0.258989
v 0.125817 0.193111 -0.249817
v -0.012589 0.146524 -0.249817
v 0.137446 0.199770 -0.245312
v 0.132292 0.173877 -0.229522
v 0.125817 0.193111 -0.249817
v -0.012589 0.146524 -0.249817
v 0.125817 0.193111 -0.249817
v 0.132292 0.173877 -0.229522
v -0.012589 0.146524 -0.249817
v 0.132292 0.173877 -0.229522
v 0.143348 0.141030 -0.194864
v -0.143525 0.124561 -0.213522
v -0.111912 0.030642 -0.114425
v -0.235270 0.048991 -0.081665
v -0.111912 0.030642 -0.114425
v -0.143525 0.124561 -0.213522
v -0.012589 0.146524 -0.249817
v -0.226499 0.022934 0.020943
v -0.235270 0.048991 -0.081665
v -0.111912 0.030642 -0.114425
v -0.012589 0.146524 -0.249817
v 0.143348 0.141030 -0.194864
v 0.023918 0.038066 -0.135380
v -0.012589 0.146524 -0.249817
v 0.023918 0.038066 -0.135380
v -0.111912 0.030642 -0.114425
v -0.111912 0.030642 -0.114425
v -0.100341 -0.003734 0.020943
v -0.226499 0.022934 0.020943
v -0.100341 -0.003734 0.020943
v -0.111912 0.030642 -0.114425
v 0.023918 0.038066 -0.135380
v 0.143348 0.141030 -0.194864
v 0.162324 0.084654 -0.135380
v 0.023918 0.038066 -0.135380
v 0.143348 0.141030 -0.194864
v 0.209757 0.121075 -0.124187
v 0.162324 0.084654 -0.135380
v 0.162324 0.084654 -0.135380
v 0.209757 0.121075 -0.124187
v 0.209195 0.073265 0.020943
v 0.037280 -0.001632 0.020943
v 0.023918 0.038066 -0.135380
v 0.162324 0.084654 -0.135380
v 0.023918 0.038066 -0.135380
v 0.037280 -0.001632 0.020943
v -0.100341 -0.003734 0.020943
v 0.209195 0.073265 0.020943
v 0.175686 0.044956 0.020943
v 0.162324 0.084654 -0.135380
v 0.162324 0.084654 -0.135380
v 0.175686 0.044956 0.020943
v 0.037280 -0.001632 0.020943
v 0.209195 0.073265 0.020943
v 0.171811 0.056470 0.066285
v 0.175686 0.044956 0.020943
v 0.037280 -0.001632 0.020943
v 0.175686 0.044956 0.020943
v 0.171811 0.056470 0.066285
v 0.023918 0.038067 0.177267
v 0.037280 -0.001632 0.020943
v 0.171811 0.056470 0.066285
v -0.100341 -0.003734 0.020943
v 0.037280 -0.001632 0.020943
v 0.023918 0.038067 0.177267
v 0.163947 0.079833 0.158283
v 0.023918 0.038067 0.177267
v 0.171811 0.056470 0.066285
v -0.226499 0.022934 0.020943
v -0.100341 -0.003734 0.020943
v -0.111912 0.030642 0.156312
v 0.023918 0.038067 0.177267
v -0.111912 0.030642 0.156312
v -0.100341 -0.003734 0.020943
v -0.111912 0.030642 0.156312
v -0.235270 0.048991 0.123552
v -0.226499 0.022934 0.020943
v -0.259233 0.120181 0.198666
v -0.235270 0.048991 0.123552
v -0.111912 0.030642 0.156312
v -0.111912 0.030642 0.156312
v -0.143525 0.124561 0.255408
v -0.259233 0.120181 0.198666
v -0.143525 0.124561 0.255408
v -0.111912 0.030642 0.156312
v 0.023918 0.038067 0.177267
v 0.023918 0.038067 0.177267
v -0.012589 0.146524 0.291704
v -0.143525 0.124561 0.255408
v 0.125817 0.193112 0.291704
v -0.012589 0.146524 0.291704
v 0.023918 0.038067 0.177267
v 0.163947 0.079833 0.158283
v 0.162324 0.084654 0.177267
v 0.023918 0.038067 0.177267
v 0.023918 0.038067 0.177267
v 0.162324 0.084654 0.177267
v 0.125817 0.193112 0.291704
v 0.163947 0.079833 0.158283
v 0.186041 0.102865 0.171670
v 0.162324 0.084654 0.177267
v 0.125817 0.193112 0.291704
v 0.162324 0.084654 0.177267
v 0.186041 0.102865 0.171670
v 0.242611 0.230723 0.223774
v 0.125817 0.193112 0.291704
v 0.186041 0.102865 0.171670
v 0.242611 0.230723 0.223774
v 0.216858 0.245240 0.256437
v 0.125817 0.193112 0.291704
v 0.016095 0.263557 -0.254101
v 0.053215 0.331396 -0.269602
v -0.059294 0.295745 -0.269755
v -0.012926 0.157990 -0.230809
v 0.016095 0.263557 -0.254101
v -0.059294 0.295745 -0.269755
v -0.012926 0.157990 -0.230809
v -0.059294 0.295745 -0.269755
v -0.178248 0.255705 -0.229467
v -0.012926 0.157990 -0.230809
v 0.110874 0.230231 -0.237662
v 0.016095 0.263557 -0.254101
v -0.178248 0.255705 -0.229467
v -0.274437 0.223328 -0.171992
v -0.243663 0.131901 -0.146144
v 0.126839 0.205730 -0.229845
v 0.128885 0.221145 -0.232475
v 0.110874 0.230231 -0.237662
v -0.243663 0.131901 -0.146144
v -0.138306 0.137042 -0.195918
v -0.178248 0.255705 -0.229467
v -0.178248 0.255705 -0.229467
v -0.138306 0.137042 -0.195918
v -0.012926 0.157990 -0.230809
v -0.138306 0.137042 -0.195918
v -0.243663 0.131901 -0.146144
v -0.221134 0.064971 -0.075524
v 0.110874 0.230231 -0.237662
v 0.118509 0.202169 -0.230911
v 0.126839 0.205730 -0.229845
v -0.012926 0.157990 -0.230809
v 0.118509 0.202169 -0.230911
v 0.110874 0.230231 -0.237662
v 0.118509 0.202169 -0.230911
v 0.126295 0.188404 -0.213841
v 0.126839 0.205730 -0.229845
v 0.126295 0.188404 -0.213841
v 0.118509 0.202169 -0.230911
v -0.012926 0.157990 -0.230809
v 0.126295 0.188404 -0.213841
v -0.012926 0.157990 -0.230809
v 0.137036 0.155437 -0.179196
v -0.221134 0.064971 -0.075524
v -0.109066 0.050174 -0.104262
v -0.138306 0.137042 -0.195918
v -0.012926 0.157990 -0.230809
v -0.138306 0.137042 -0.195918
v -0.109066 0.050174 -0.104262
v -0.109066 0.050174 -0.104262
v -0.221134 0.064971 -0.075524
v -0.212888 0.040473 0.020943
v -0.012926 0.157990 -0.230809
v 0.021018 0.057147 -0.124406
v 0.137036 0.155437 -0.179196
v -0.109066 0.050174 -0.104262
v 0.021018 0.057147 -0.124406
v -0.012926 0.157990 -0.230809
v -0.212888 0.040473 0.020943
v -0.098364 0.018379 0.020943
v -0.109066 0.050174 -0.104262
v 0.021018 0.057147 -0.124406
v -0.109066 0.050174 -0.104262
v -0.098364 0.018379 0.020943
v 0.021018 0.057147 -0.124406
v 0.152466 0.101285 -0.124465
v 0.137036 0.155437 -0.179196
v 0.152466 0.101285 -0.124465
v 0.196143 0.135952 -0.114901
v 0.137036 0.155437 -0.179196
v 0.194920 0.090163 0.022831
v 0.196143 0.135952 -0.114901
v 0.152466 0.101285 -0.124465
v 0.152466 0.101285 -0.124465
v 0.021018 0.057147 -0.124406
v 0.033442 0.020236 0.020943
v -0.098364 0.018379 0.020943
v 0.033442 0.020236 0.020943
v 0.021018 0.057147 -0.124406
v 0.152466 0.101285 -0.124465
v 0.164896 0.064358 0.020943
v 0.194920 0.090163 0.022831
v 0.033442 0.020236 0.020943
v 0.164896 0.064358 0.020943
v 0.152466 0.101285 -0.124465
v 0.164896 0.064358 0.020943
v 0.163453 0.076224 0.060555
v 0.194920 0.090163 0.022831
v 0.163453 0.076224 0.060555
v 0.164896 0.064358 0.020943
v 0.033442 0.020236 0.020943
v 0.021018 0.057147 0.166292
v 0.163453 0.076224 0.060555
v 0.033442 0.020236 0.020943
v 0.021018 0.057147 0.166292
v 0.033442 0.020236 0.020943
v -0.098364 0.018379 0.020943
v 0.021018 0.057147 0.166292
v 0.155208 0.099424 0.152561
v 0.163453 0.076224 0.060555
v -0.109066 0.050174 0.146148
v -0.098364 0.018379 0.020943
v -0.212888 0.040473 0.020943
v -0.098364 0.018379 0.020943
v -0.109066 0.050174 0.146148
v 0.021018 0.057147 0.166292
v -0.212888 0.040473 0.020943
v -0.221134 0.064971 0.117411
v -0.109066 0.050174 0.146148
v -0.109066 0.050174 0.146148
v -0.221134 0.064971 0.117411
v -0.243663 0.131901 0.188030
v -0.243663 0.131901 0.188030
v -0.138306 0.137042 0.237805
v -0.109066 0.050174 0.146148
v 0.021018 0.057147 0.166292
v -0.109066 0.050174 0.146148
v -0.138306 0.137042 0.237805
v -0.138306 0.137042 0.237805
v -0.012926 0.157990 0.272695
v 0.021018 0.057147 0.166292
v 0.021018 0.057147 0.166292
v -0.012926 0.157990 0.272695
v 0.118509 0.202169 0.272797
v 0.021018 0.057147 0.166292
v 0.152466 0.101285 0.166351
v 0.155208 0.099424 0.152561
v 0.118509 0.202169 0.272797
v 0.152466 0.101285 0.166351
v 0.021018 0.057147 0.166292
v 0.152466 0.101285 0.166351
v 0.173268 0.115487 0.158615
v 0.155208 0.099424 0.152561
v 0.118509 0.202169 0.272797
v 0.173268 0.115487 0.158615
v 0.152466 0.101285 0.166351
v 0.118509 0.202169 0.272797
v 0.230421 0.242093 0.209110
v 0.173268 0.115487 0.158615
v 0.118509 0.202169 0.272797
v 0.205222 0.254353 0.239870
v 0.230421 0.242093 0.209110
vn 0.5267 0.8447 0.0948
vn 0.5973 0.7932 0.1184
vn 0.9011 -0.4286 -0.0650
vn 0.8792 -0.4385 0.1865
vn -0.2389 0.7701 0.5914
vn -0.2763 0.8208 0.5000
vn -0.7015 0.3919 -0.5952
vn -0.7710 0.5984 -0.2179
vn -0.7710 0.5984 0.2179
vn -0.7015 0.3919 0.5952
vn -0.5812 0.0342 0.8131
vn -0.5812 0.0343 0.8131
vn 0.4231 0.8997 0.1072
vn 0.3472 0.9276 -0.1379
vn 0.3497 0.9268 -0.1372
vn 0.3427 0.9171 -0.2036
vn 0.8526 0.0281 0.5218
vn 0.8225 -0.0121 0.5687
vn 0.8414 0.1493 0.5194
vn 0.9626 0.1669 0.2135
vn 0.9360 0.3503 0.0334
vn 0.9333 0.3556 0.0490
vn 0.6158 0.6878 -0.3844
vn 0.5914 0.7405 -0.3193
vn 0.7815 0.5917 0.1979
vn 0.7581 0.6168 0.2118
vn 0.6068 0.4386 0.6628
vn 0.5991 0.4463 0.6647
vn 0.9227 0.3849 -0.0189
vn 0.9152 0.4026 -0.0195
vn 0.5278 -0.0126 -0.8493
vn 0.5272 -0.2919 -0.7980
vn 0.7039 -0.0221 -0.7100
vn 0.7407 -0.0678 -0.6684
vn -0.3190 0.9478 -0.0000
vn -0.3008 0.9490 0.0948
vn 0.0826 -0.2453 -0.9659
vn -0.2007 -0.3285 -0.9229
vn -0.3975 -0.3711 -0.8392
vn 0.4155 -0.1152 -0.9023
vn -0.2733 -0.7402 -0.6144
vn 0.5491 -0.5121 -0.6605
vn 0.2256 -0.6702 -0.7071
vn -0.0641 -0.7345 -0.6756
vn -0.2015 -0.9533 -0.2249
vn 0.0148 -0.9688 -0.2473
vn 0.6262 -0.7412 -0.2418
vn 0.3081 -0.9155 -0.2588
vn 0.6262 -0.7412 0.2418
vn 0.3081 -0.9155 0.2588
vn 0.0148 -0.9688 0.2473
vn -0.2015 -0.9533 0.2249
vn -0.2733 -0.7402 0.6144
vn -0.0641 -0.7344 0.6756
vn 0.2256 -0.6702 0.7071
vn 0.5491 -0.5121 0.6605
vn -0.0980 0.2400 0.9658
vn 0.2018 0.3288 0.9226
vn -0.1826 0.1888 0.9649
vn 0.3824 0.3683 0.8474
vn 0.2569 0.7410 0.6204
vn -0.1992 0.1777 0.9637
vn -0.0715 0.2149 0.9740
vn -0.3601 0.6391 0.6796
vn -0.2352 0.7014 0.6729
vn 0.0652 0.7346 0.6754
vn 0.1845 0.9562 0.2271
vn -0.2320 0.6680 0.7071
vn -0.0136 0.9689 0.2472
vn -0.6353 0.7345 0.2386
vn -0.3074 0.9157 0.2588
vn -0.6414 0.7287 0.2399
vn -0.6230 0.7428 -0.2452
vn -0.0136 0.9689 -0.2472
vn -0.3142 0.9135 -0.2585
vn 0.1845 0.9562 -0.2271
vn 0.2569 0.7410 -0.6204
vn 0.0652 0.7346 -0.6754
vn -0.3126 0.9311 -0.1878
vn -0.2248 0.6704 -0.7071
vn -0.6049 0.7643 -0.2234
vn -0.5781 0.4922 -0.6509
vn -0.3145 0.9133 -0.2588
vn -0.5555 0.5121 -0.6551
vn -0.5557 0.5083 -0.6578
vn -0.0857 0.2663 0.9601
vn -0.0846 0.2368 0.9679
vn -0.2321 0.6677 0.7073
vn -0.3052 0.9091 -0.2835
vn -0.2217 0.6612 0.7167
vn -0.5501 0.5109 0.6606
vt 0.691406 0.675293
vt 0.681641 0.677490
vt 0.680176 0.672607
vt 0.689941 0.670410
vt 0.658203 0.655029
vt 0.672363 0.668457
vt 0.667969 0.671143
vt 0.654785 0.658691
vt 0.010254 0.479004
vt 0.005035 0.475098
vt 0.023300 0.450195
vt 0.029144 0.453125
vt 0.033295 0.411133
vt 0.039703 0.412109
vt 0.037415 0.372070
vt 0.031067 0.373047
vt 0.022263 0.340332
vt 0.027054 0.335938
vt 0.335693 0.369141
vt 0.341064 0.365723
vt 0.360352 0.387207
vt 0.356201 0.392090
vt 0.385010 0.402344
vt 0.382324 0.408203
vt 0.412842 0.409668
vt 0.412109 0.416016
vt 0.441650 0.408691
vt 0.442871 0.415039
vt 0.469238 0.399902
vt 0.471924 0.405762
vt 0.088989 0.763062
vt 0.086182 0.766968
vt 0.082275 0.765747
vt 0.084839 0.760132
vt 0.104065 0.745117
vt 0.100159 0.741943
vt 0.393799 0.711670
vt 0.394287 0.716553
vt 0.389893 0.717041
vt 0.388916 0.713379
vt 0.389648 0.705322
vt 0.385254 0.708740
vt 0.381836 0.695801
vt 0.377686 0.699219
vt 0.363037 0.679932
vt 0.360596 0.684814
vt 0.326416 0.669922
vt 0.325684 0.675537
vt 0.311279 0.672119
vt 0.313232 0.677246
vt 0.289062 0.680176
vt 0.291016 0.685303
vt 0.982422 0.011719
vt 0.983887 0.003906
vt 0.988770 0.006348
vt 0.987305 0.011719
vt 0.984863 0.046387
vt 0.989746 0.045898
vt 0.568848 0.582520
vt 0.567871 0.552734
vt 0.572266 0.554688
vt 0.574219 0.581543
vt 0.582031 0.610840
vt 0.577148 0.613037
vt 0.592285 0.636475
vt 0.596680 0.633789
vt 0.302002 0.633301
vt 0.309082 0.662598
vt 0.290771 0.652588
vt 0.264893 0.642578
vt 0.289795 0.601807
vt 0.278564 0.675049
vt 0.250244 0.582764
vt 0.274658 0.573242
vt 0.274902 0.680908
vt 0.270508 0.679443
vt 0.258301 0.612305
vt 0.224731 0.587646
vt 0.270020 0.676025
vt 0.263184 0.677490
vt 0.251465 0.678955
vt 0.227661 0.617188
vt 0.199219 0.588379
vt 0.230225 0.646973
vt 0.197266 0.617432
vt 0.231567 0.678955
vt 0.231812 0.693115
vt 0.195312 0.689697
vt 0.195679 0.646729
vt 0.195068 0.679199
vt 0.183960 0.679932
vt 0.161499 0.643555
vt 0.161011 0.677002
vt 0.166870 0.613770
vt 0.173828 0.584229
vt 0.149414 0.576172
vt 0.135620 0.604004
vt 0.124451 0.635742
vt 0.118896 0.671143
vt 0.156494 0.676025
vt 0.155273 0.683105
vt 0.126465 0.703613
vt 0.877441 0.895020
vt 0.901855 0.885925
vt 0.911621 0.904175
vt 0.899414 0.934143
vt 0.882812 0.861084
vt 0.886719 0.859863
vt 0.889648 0.863892
vt 0.863281 0.950684
vt 0.870605 0.924011
vt 0.839355 0.945831
vt 0.882324 0.863159
vt 0.877441 0.861450
vt 0.842285 0.919006
vt 0.814941 0.944672
vt 0.845215 0.890625
vt 0.865234 0.859863
vt 0.813965 0.918274
vt 0.812988 0.849976
vt 0.847656 0.847168
vt 0.846680 0.860352
vt 0.812988 0.890076
vt 0.812988 0.859375
vt 0.803223 0.858032
vt 0.781250 0.892334
vt 0.780273 0.860474
vt 0.785645 0.921143
vt 0.791016 0.947968
vt 0.768066 0.955017
vt 0.756348 0.929260
vt 0.777344 0.861450
vt 0.742188 0.864868
vt 0.776855 0.855225
vt 0.118042 0.697510
vt 0.885742 0.959778
vt 0.746582 0.898621
vt 0.749512 0.833862
vt 0.741699 0.839722
vt 0.918457 0.875671
s 0
f 1/1/1 2/2/1 3/3/1
f 4/3/2 5/4/2 6/1/2
f 7/5/3 8/6/3 9/7/3
f 10/7/4 11/8/4 12/5/4
f 13/9/5 14/10/5 15/11/5
f 16/11/6 17/12/6 18/9/6
f 19/12/6 20/11/6 21/13/6
f 22/13/6 23/14/6 24/12/6
f 25/15/6 26/14/6 27/13/6
f 28/13/6 29/16/6 30/15/6
f 31/15/6 32/16/6 33/17/6
f 34/17/6 35/18/6 36/15/6
f 37/19/7 38/20/7 39/21/7
f 40/21/7 41/22/7 42/19/7
f 43/22/8 44/21/8 45/23/8
f 46/23/8 47/24/8 48/22/8
f 49/24/9 50/23/9 51/25/9
f 52/25/9 53/26/9 54/24/9
f 55/26/10 56/25/10 57/27/10
f 58/27/10 59/28/10 60/26/10
f 61/28/11 62/27/11 63/29/11
f 64/29/12 65/30/12 66/28/12
f 67/31/13 68/32/13 69/33/13
f 70/33/14 71/34/14 72/31/14
f 73/35/15 74/31/15 75/34/15
f 76/34/16 77/36/16 78/35/16
f 79/37/17 80/38/17 81/39/17
f 82/39/18 83/40/18 84/37/18
f 85/41/19 86/37/19 87/40/19
f 88/40/20 89/42/20 90/41/20
f 91/43/21 92/41/21 93/42/21
f 94/42/22 95/44/22 96/43/22
f 97/45/23 98/43/23 99/44/23
f 100/44/24 101/46/24 102/45/24
f 103/47/25 104/45/25 105/46/25
f 106/46/26 107/48/26 108/47/26
f 109/49/27 110/47/27 111/48/27
f 112/48/28 113/50/28 114/49/28
f 115/51/29 116/49/29 117/50/29
f 118/50/30 119/52/30 120/51/30
f 121/53/31 122/54/31 123/55/31
f 124/55/32 125/56/32 126/53/32
f 127/57/33 128/53/33 129/56/33
f 130/56/34 131/58/34 132/57/34
f 133/59/35 134/60/35 135/61/35
f 136/61/35 137/62/35 138/59/35
f 139/59/35 140/62/35 141/63/35
f 142/63/35 143/64/35 144/59/35
f 145/65/35 146/64/35 147/63/35
f 148/63/36 149/66/36 150/65/36
f 151/67/37 152/68/37 153/69/37
f 154/70/37 155/67/37 156/69/37
f 157/71/38 158/67/38 159/70/38
f 160/72/37 161/70/37 162/69/37
f 163/73/39 164/74/39 165/71/39
f 166/72/40 167/75/40 168/76/40
f 169/71/39 170/77/39 171/73/39
f 172/70/38 173/77/38 174/71/38
f 175/78/41 176/73/41 177/77/41
f 178/76/40 179/79/40 180/72/40
f 181/72/37 182/79/37 183/70/37
f 184/76/42 185/80/42 186/79/42
f 187/70/43 188/79/43 189/80/43
f 190/70/43 191/80/43 192/81/43
f 193/77/41 194/82/41 195/78/41
f 196/82/44 197/77/44 198/70/44
f 199/83/45 200/78/45 201/82/45
f 202/70/43 203/81/43 204/84/43
f 205/70/44 206/84/44 207/82/44
f 208/82/45 209/85/45 210/83/45
f 211/85/46 212/82/46 213/84/46
f 214/81/43 215/86/43 216/84/43
f 217/81/42 218/87/42 219/86/42
f 220/86/47 221/87/47 222/88/47
f 223/89/48 224/84/48 225/86/48
f 226/84/46 227/89/46 228/85/46
f 229/88/47 230/90/47 231/86/47
f 232/86/48 233/90/48 234/89/48
f 235/88/49 236/91/49 237/90/49
f 238/89/50 239/90/50 240/91/50
f 241/92/50 242/89/50 243/91/50
f 244/85/51 245/89/51 246/92/51
f 247/93/50 248/92/50 249/91/50
f 250/83/52 251/85/52 252/94/52
f 253/92/51 254/94/51 255/85/51
f 256/94/52 257/95/52 258/83/52
f 259/96/53 260/95/53 261/94/53
f 262/94/53 263/97/53 264/96/53
f 265/97/54 266/94/54 267/92/54
f 268/92/54 269/98/54 270/97/54
f 271/99/55 272/98/55 273/92/55
f 274/93/50 275/100/50 276/92/50
f 277/92/55 278/100/55 279/99/55
f 280/93/49 281/101/49 282/100/49
s 1
f 283/99/56 284/100/56 285/101/56
f 286/102/56 287/99/56 288/101/56
f 295/103/57 296/104/57 297/105/57
f 298/103/58 299/105/58 300/106/58
f 307/107/59 308/108/59 309/109/59
f 310/110/60 311/111/60 312/106/60
f 313/106/58 314/111/58 315/103/58
f 316/111/61 317/110/61 318/112/61
f 319/109/62 320/113/62 321/107/62
f 322/103/63 323/113/63 324/109/63
f 325/113/64 326/114/64 327/107/64
f 328/114/65 329/113/65 330/103/65
f 337/103/66 338/111/66 339/115/66
f 340/115/67 341/112/67 342/116/67
f 343/103/68 344/117/68 345/118/68
f 346/115/66 347/117/66 348/103/66
f 349/116/67 350/119/67 351/115/67
f 352/117/69 353/115/69 354/119/69
f 361/120/70 362/121/70 363/122/70
f 364/122/71 365/117/71 366/123/71
f 367/119/69 368/123/69 369/117/69
f 370/122/72 371/124/72 372/120/72
f 373/123/71 374/124/71 375/122/71
f 376/124/73 377/125/73 378/120/73
f 385/126/74 386/123/74 387/119/74
f 388/126/75 389/127/75 390/125/75
f 391/128/76 392/119/76 393/116/76
f 394/119/74 395/128/74 396/126/74
f 397/116/76 398/129/76 399/128/76
f 400/128/77 401/129/77 402/130/77
f 403/130/77 404/131/77 405/128/77
f 406/126/78 407/128/78 408/131/78
f 415/126/79 416/132/79 417/127/79
f 418/133/80 419/132/80 420/126/80
f 421/132/81 422/134/81 423/127/81
f 424/133/82 425/134/82 426/132/82
f 289/102/56 290/135/56 291/99/56
f 304/106/60 305/136/60 306/110/60
f 334/112/61 335/115/61 336/111/61
f 382/126/83 383/125/83 384/123/83
f 412/126/80 413/137/80 414/133/80
f 427/133/84 428/138/84 429/134/84
f 430/133/85 431/139/85 432/138/85
f 292/104/86 293/140/86 294/105/86
f 301/103/87 302/109/87 303/104/87
f 331/114/88 332/103/88 333/118/88
f 379/125/89 380/124/89 381/123/89
f 409/131/78 410/137/78 411/126/78
f 355/117/90 356/122/90 357/118/90
f 358/122/91 359/121/91 360/118/91
