# Blender 4.0.1
# www.blender.org
mtllib plant2.mtl
o plant2
v 1.001359 1.050004 -0.017148
v 0.592822 0.933508 -0.105241
v 0.587329 0.988288 -0.018908
v 0.587329 0.988288 -0.018908
v 0.597575 0.934216 0.051725
v 1.001359 1.050004 -0.017148
v 0.321126 0.727350 -0.109541
v 0.587329 0.988288 -0.018908
v 0.592822 0.933508 -0.105241
v 0.327154 0.734040 0.059431
v 0.597575 0.934216 0.051725
v 0.587329 0.988288 -0.018908
v 0.587329 0.988288 -0.018908
v 0.321126 0.727350 -0.109541
v 0.283448 0.767686 -0.020469
v 0.587329 0.988288 -0.018908
v 0.283448 0.767686 -0.020469
v 0.327154 0.734040 0.059431
v 0.321126 0.727350 -0.109541
v 0.099044 0.416451 -0.021822
v 0.283448 0.767686 -0.020469
v 0.099044 0.416451 -0.021822
v 0.327154 0.734040 0.059431
v 0.283448 0.767686 -0.020469
v 0.321126 0.727350 -0.109541
v 0.153043 0.404952 -0.113250
v 0.099044 0.416451 -0.021822
v 0.327154 0.734040 0.059431
v 0.099044 0.416451 -0.021822
v 0.154203 0.414492 0.066141
v 0.153043 0.404952 -0.113250
v 0.042225 -0.050887 -0.065199
v 0.099044 0.416451 -0.021822
v 0.099044 0.416451 -0.021822
v 0.042225 -0.050887 0.014886
v 0.154203 0.414492 0.066141
v 0.042225 -0.050887 -0.023802
v 0.099044 0.416451 -0.021822
v 0.042225 -0.050887 -0.065199
v 0.099044 0.416451 -0.021822
v 0.042225 -0.050887 -0.023802
v 0.042225 -0.050887 0.014886
v -0.196431 1.050004 0.972244
v -0.030849 0.933508 0.588519
v -0.114482 0.988288 0.566401
v -0.114482 0.988288 0.566401
v -0.185762 0.934216 0.562767
v -0.196431 1.050004 0.972244
v 0.026013 0.727350 0.322805
v -0.114482 0.988288 0.566401
v -0.030849 0.933508 0.588519
v -0.140925 0.734040 0.295978
v -0.185762 0.934216 0.562767
v -0.114482 0.988288 0.566401
v -0.114482 0.988288 0.566401
v 0.026013 0.727350 0.322805
v -0.054071 0.767686 0.268582
v -0.114482 0.988288 0.566401
v -0.054071 0.767686 0.268582
v -0.140925 0.734040 0.295978
v 0.026013 0.727350 0.322805
v -0.017013 0.416451 0.087935
v -0.054071 0.767686 0.268582
v -0.017013 0.416451 0.087935
v -0.140925 0.734040 0.295978
v -0.054071 0.767686 0.268582
v 0.026013 0.727350 0.322805
v 0.062219 0.404952 0.158625
v -0.017013 0.416451 0.087935
v -0.140925 0.734040 0.295978
v -0.017013 0.416451 0.087935
v -0.113996 0.414492 0.125004
v 0.062219 0.404952 0.158625
v 0.036551 -0.050887 0.040597
v -0.017013 0.416451 0.087935
v -0.017013 0.416451 0.087935
v -0.042017 -0.050887 0.025080
v -0.113996 0.414492 0.125004
v -0.004062 -0.050887 0.032576
v -0.017013 0.416451 0.087935
v 0.036551 -0.050887 0.040597
v -0.017013 0.416451 0.087935
v -0.004062 -0.050887 0.032576
v -0.042017 -0.050887 0.025080
v -0.854578 1.050004 -0.479954
v -0.530015 0.933508 -0.216664
v -0.486081 0.988288 -0.291185
v -0.486081 0.988288 -0.291185
v -0.463284 0.934216 -0.358819
v -0.854578 1.050004 -0.479954
v -0.289620 0.727350 -0.089985
v -0.486081 0.988288 -0.291185
v -0.530015 0.933508 -0.216664
v -0.218598 0.734040 -0.243425
v -0.463284 0.934216 -0.358819
v -0.486081 0.988288 -0.291185
v -0.486081 0.988288 -0.291185
v -0.289620 0.727350 -0.089985
v -0.215741 0.767686 -0.152397
v -0.486081 0.988288 -0.291185
v -0.215741 0.767686 -0.152397
v -0.218598 0.734040 -0.243425
v -0.289620 0.727350 -0.089985
v -0.051874 0.416451 -0.067814
v -0.215741 0.767686 -0.152397
v -0.051874 0.416451 -0.067814
v -0.218598 0.734040 -0.243425
v -0.215741 0.767686 -0.152397
v -0.289620 0.727350 -0.089985
v -0.141375 0.404952 -0.010680
v -0.051874 0.416451 -0.067814
v -0.218598 0.734040 -0.243425
v -0.051874 0.416451 -0.067814
v -0.061301 0.414492 -0.171212
v -0.141375 0.404952 -0.010680
v -0.020806 -0.050887 -0.003434
v -0.051874 0.416451 -0.067814
v -0.051874 0.416451 -0.067814
v 0.015403 -0.050887 -0.074866
v -0.061301 0.414492 -0.171212
v -0.002089 -0.050887 -0.040358
v -0.051874 0.416451 -0.067814
v -0.020806 -0.050887 -0.003434
v -0.051874 0.416451 -0.067814
v -0.002089 -0.050887 -0.040358
v 0.015403 -0.050887 -0.074866
v 0.611792 0.772416 0.535889
v 0.429230 0.686014 0.285390
v 0.383556 0.726643 0.330450
v 0.383556 0.726643 0.330450
v 0.354344 0.686540 0.374596
v 0.611792 0.772416 0.535889
v 0.281009 0.533112 0.148836
v 0.383556 0.726643 0.330450
v 0.429230 0.686014 0.285390
v 0.200899 0.538074 0.245315
v 0.354344 0.686540 0.374596
v 0.383556 0.726643 0.330450
v 0.383556 0.726643 0.330450
v 0.281009 0.533112 0.148836
v 0.216172 0.563028 0.179518
v 0.383556 0.726643 0.330450
v 0.216172 0.563028 0.179518
v 0.200899 0.538074 0.245315
v 0.281009 0.533112 0.148836
v 0.114799 0.302526 0.087703
v 0.216172 0.563028 0.179518
v 0.114799 0.302526 0.087703
v 0.200899 0.538074 0.245315
v 0.216172 0.563028 0.179518
v 0.281009 0.533112 0.148836
v 0.189831 0.293998 0.063778
v 0.114799 0.302526 0.087703
v 0.200899 0.538074 0.245315
v 0.114799 0.302526 0.087703
v 0.101882 0.301073 0.163617
v 0.189831 0.293998 0.063778
v 0.104780 -0.044087 0.035641
v 0.114799 0.302526 0.087703
v 0.114799 0.302526 0.087703
v 0.065230 -0.044087 0.079956
v 0.101882 0.301073 0.163617
v 0.084336 -0.044087 0.058548
v 0.114799 0.302526 0.087703
v 0.104780 -0.044087 0.035641
v 0.114799 0.302526 0.087703
v 0.084336 -0.044087 0.058548
v 0.065230 -0.044087 0.079956
v 0.252648 0.772416 -0.775225
v 0.098946 0.686014 -0.506051
v 0.158765 0.726643 -0.482850
v 0.158765 0.726643 -0.482850
v 0.211004 0.686540 -0.474291
v 0.252648 0.772416 -0.775225
v 0.035115 0.533112 -0.314891
v 0.158765 0.726643 -0.482850
v 0.098946 0.686014 -0.506051
v 0.155947 0.538074 -0.281347
v 0.211004 0.686540 -0.474291
v 0.158765 0.726643 -0.482850
v 0.158765 0.726643 -0.482850
v 0.035115 0.533112 -0.314891
v 0.089669 0.563028 -0.268319
v 0.158765 0.726643 -0.482850
v 0.089669 0.563028 -0.268319
v 0.155947 0.538074 -0.281347
v 0.035115 0.533112 -0.314891
v 0.047452 0.302526 -0.138226
v 0.089669 0.563028 -0.268319
v 0.047452 0.302526 -0.138226
v 0.155947 0.538074 -0.281347
v 0.089669 0.563028 -0.268319
v 0.035115 0.533112 -0.314891
v -0.005116 0.293998 -0.196866
v 0.047452 0.302526 -0.138226
v 0.155947 0.538074 -0.281347
v 0.047452 0.302526 -0.138226
v 0.121994 0.301073 -0.157548
v -0.005116 0.293998 -0.196866
v 0.004067 -0.044087 -0.107754
v 0.047452 0.302526 -0.138226
v 0.047452 0.302526 -0.138226
v 0.060696 -0.044087 -0.089835
v 0.121994 0.301073 -0.157548
v 0.033339 -0.044087 -0.098491
v 0.047452 0.302526 -0.138226
v 0.004067 -0.044087 -0.107754
v 0.047452 0.302526 -0.138226
v 0.033339 -0.044087 -0.098491
v 0.060696 -0.044087 -0.089835
v -0.726679 0.772416 0.288695
v -0.421868 0.686014 0.232403
v -0.442747 0.726643 0.171735
v -0.442747 0.726643 0.171735
v -0.469920 0.686540 0.126306
v -0.726679 0.772416 0.288695
v -0.234647 0.533112 0.157804
v -0.442747 0.726643 0.171735
v -0.421868 0.686014 0.232403
v -0.286999 0.538074 0.043852
v -0.469920 0.686540 0.126306
v -0.442747 0.726643 0.171735
v -0.442747 0.726643 0.171735
v -0.234647 0.533112 0.157804
v -0.234276 0.563028 0.086075
v -0.442747 0.726643 0.171735
v -0.234276 0.563028 0.086075
v -0.286999 0.538074 0.043852
v -0.234647 0.533112 0.157804
v -0.107653 0.302526 0.034371
v -0.234276 0.563028 0.086075
v -0.107653 0.302526 0.034371
v -0.286999 0.538074 0.043852
v -0.234276 0.563028 0.086075
v -0.234647 0.533112 0.157804
v -0.118525 0.293998 0.112371
v -0.107653 0.302526 0.034371
v -0.286999 0.538074 0.043852
v -0.107653 0.302526 0.034371
v -0.170518 0.301073 -0.010102
v -0.118525 0.293998 0.112371
v -0.056377 -0.044087 0.047849
v -0.107653 0.302526 0.034371
v -0.107653 0.302526 0.034371
v -0.079234 -0.044087 -0.006974
v -0.170518 0.301073 -0.010102
v -0.068192 -0.044087 0.019511
v -0.107653 0.302526 0.034371
v -0.056377 -0.044087 0.047849
v -0.107653 0.302526 0.034371
v -0.068192 -0.044087 0.019511
v -0.079234 -0.044087 -0.006974
v 0.840673 0.512883 -0.651201
v 0.550865 0.524448 -0.511839
v 0.596571 0.564711 -0.466483
v 0.596571 0.564711 -0.466483
v 0.624394 0.524539 -0.421510
v 0.840673 0.512883 -0.651201
v 0.359382 0.441655 -0.368748
v 0.596571 0.564711 -0.466483
v 0.550865 0.524448 -0.511839
v 0.440115 0.445722 -0.272749
v 0.624394 0.524539 -0.421510
v 0.596571 0.564711 -0.466483
v 0.596571 0.564711 -0.466483
v 0.359382 0.441655 -0.368748
v 0.385669 0.479158 -0.305958
v 0.596571 0.564711 -0.466483
v 0.385669 0.479158 -0.305958
v 0.440115 0.445722 -0.272749
v 0.359382 0.441655 -0.368748
v 0.218295 0.273996 -0.177652
v 0.385669 0.479158 -0.305958
v 0.218295 0.273996 -0.177652
v 0.440115 0.445722 -0.272749
v 0.385669 0.479158 -0.305958
v 0.359382 0.441655 -0.368748
v 0.205300 0.253054 -0.252935
v 0.218295 0.273996 -0.177652
v 0.440115 0.445722 -0.272749
v 0.218295 0.273996 -0.177652
v 0.288513 0.260297 -0.149126
v 0.205300 0.253054 -0.252935
v 0.082588 -0.042585 -0.111989
v 0.218295 0.273996 -0.177652
v 0.218295 0.273996 -0.177652
v 0.118677 -0.042235 -0.064815
v 0.288513 0.260297 -0.149126
v 0.101243 -0.042404 -0.087604
v 0.218295 0.273996 -0.177652
v 0.082588 -0.042585 -0.111989
v 0.218295 0.273996 -0.177652
v 0.101243 -0.042404 -0.087604
v 0.118677 -0.042235 -0.064815
v -0.337518 0.604078 -0.918480
v -0.279863 0.582687 -0.602628
v -0.222910 0.624380 -0.630651
v -0.222910 0.624380 -0.630651
v -0.173283 0.584507 -0.649567
v -0.337518 0.604078 -0.918480
v -0.195092 0.475912 -0.389535
v -0.222910 0.624380 -0.630651
v -0.279863 0.582687 -0.602628
v -0.081025 0.482024 -0.441513
v -0.173283 0.584507 -0.649567
v -0.222910 0.624380 -0.630651
v -0.222910 0.624380 -0.630651
v -0.195092 0.475912 -0.389535
v -0.126570 0.512229 -0.394625
v -0.222910 0.624380 -0.630651
v -0.126570 0.512229 -0.394625
v -0.081025 0.482024 -0.441513
v -0.195092 0.475912 -0.389535
v -0.053005 0.286637 -0.220660
v -0.126570 0.512229 -0.394625
v -0.053005 0.286637 -0.220660
v -0.081025 0.482024 -0.441513
v -0.126570 0.512229 -0.394625
v -0.195092 0.475912 -0.389535
v -0.129580 0.268623 -0.229961
v -0.053005 0.286637 -0.220660
v -0.081025 0.482024 -0.441513
v -0.053005 0.286637 -0.220660
v -0.007242 0.277702 -0.281961
v -0.129580 0.268623 -0.229961
v -0.034456 -0.043694 -0.104519
v -0.053005 0.286637 -0.220660
v -0.053005 0.286637 -0.220660
v 0.020599 -0.042646 -0.126784
v -0.007242 0.277702 -0.281961
v -0.005997 -0.043152 -0.116028
v -0.053005 0.286637 -0.220660
v -0.034456 -0.043694 -0.104519
v -0.053005 0.286637 -0.220660
v -0.005997 -0.043152 -0.116028
v 0.020599 -0.042646 -0.126784
v -0.948096 0.585415 -0.078359
v -0.639174 0.570741 0.010501
v -0.639837 0.612366 -0.053015
v -0.639837 0.612366 -0.053015
v -0.633851 0.572560 -0.105836
v -0.948096 0.585415 -0.078359
v -0.408376 0.468917 0.029458
v -0.639837 0.612366 -0.053015
v -0.639174 0.570741 0.010501
v -0.404327 0.474992 -0.095830
v -0.633851 0.572560 -0.105836
v -0.639837 0.612366 -0.053015
v -0.639837 0.612366 -0.053015
v -0.408376 0.468917 0.029458
v -0.383243 0.505719 -0.034214
v -0.639837 0.612366 -0.053015
v -0.383243 0.505719 -0.034214
v -0.404327 0.474992 -0.095830
v -0.408376 0.468917 0.029458
v -0.189912 0.284238 -0.022506
v -0.383243 0.505719 -0.034214
v -0.189912 0.284238 -0.022506
v -0.404327 0.474992 -0.095830
v -0.383243 0.505719 -0.034214
v -0.408376 0.468917 0.029458
v -0.231906 0.265382 0.041960
v -0.189912 0.284238 -0.022506
v -0.404327 0.474992 -0.095830
v -0.189912 0.284238 -0.022506
v -0.224263 0.274494 -0.090748
v -0.231906 0.265382 0.041960
v -0.070576 -0.043572 0.012867
v -0.189912 0.284238 -0.022506
v -0.189912 0.284238 -0.022506
v -0.066054 -0.042486 -0.046348
v -0.224263 0.274494 -0.090748
v -0.068238 -0.043010 -0.017742
v -0.189912 0.284238 -0.022506
v -0.070576 -0.043572 0.012867
v -0.189912 0.284238 -0.022506
v -0.068238 -0.043010 -0.017742
v -0.066054 -0.042486 -0.046348
v -0.730151 0.563898 0.669306
v -0.455666 0.558851 0.501447
v -0.504531 0.598394 0.458834
v -0.504531 0.598394 0.458834
v -0.537898 0.557055 0.418982
v -0.730151 0.563898 0.669306
v -0.282066 0.462766 0.344520
v -0.504531 0.598394 0.458834
v -0.455666 0.558851 0.501447
v -0.371919 0.464909 0.256930
v -0.537898 0.557055 0.418982
v -0.504531 0.598394 0.458834
v -0.504531 0.598394 0.458834
v -0.282066 0.462766 0.344520
v -0.313457 0.498049 0.282797
v -0.504531 0.598394 0.458834
v -0.313457 0.498049 0.282797
v -0.371919 0.464909 0.256930
v -0.282066 0.462766 0.344520
v -0.165879 0.281345 0.149277
v -0.313457 0.498049 0.282797
v -0.165879 0.281345 0.149277
v -0.371919 0.464909 0.256930
v -0.313457 0.498049 0.282797
v -0.282066 0.462766 0.344520
v -0.145967 0.263651 0.223878
v -0.165879 0.281345 0.149277
v -0.371919 0.464909 0.256930
v -0.165879 0.281345 0.149277
v -0.238982 0.268669 0.128610
v -0.145967 0.263651 0.223878
v -0.046692 -0.042469 0.086906
v -0.165879 0.281345 0.149277
v -0.165879 0.281345 0.149277
v -0.087331 -0.043184 0.043593
v -0.238982 0.268669 0.128610
v -0.067699 -0.042839 0.064517
v -0.165879 0.281345 0.149277
v -0.046692 -0.042469 0.086906
v -0.165879 0.281345 0.149277
v -0.067699 -0.042839 0.064517
v -0.087331 -0.043184 0.043593
v 0.227425 0.539601 0.960544
v 0.231218 0.542042 0.638793
v 0.170002 0.582456 0.658454
v 0.170002 0.582456 0.658454
v 0.117630 0.542077 0.664555
v 0.227425 0.539601 0.960544
v 0.188651 0.452296 0.406136
v 0.170002 0.582456 0.658454
v 0.231218 0.542042 0.638793
v 0.066755 0.456361 0.435721
v 0.117630 0.542077 0.664555
v 0.170002 0.582456 0.658454
v 0.170002 0.582456 0.658454
v 0.188651 0.452296 0.406136
v 0.120460 0.489188 0.400744
v 0.170002 0.582456 0.658454
v 0.120460 0.489188 0.400744
v 0.066755 0.456361 0.435721
v 0.188651 0.452296 0.406136
v 0.081279 0.277946 0.199724
v 0.120460 0.489188 0.400744
v 0.081279 0.277946 0.199724
v 0.066755 0.456361 0.435721
v 0.120460 0.489188 0.400744
v 0.188651 0.452296 0.406136
v 0.154642 0.258141 0.222094
v 0.081279 0.277946 0.199724
v 0.066755 0.456361 0.435721
v 0.081279 0.277946 0.199724
v 0.024628 0.265288 0.250344
v 0.154642 0.258141 0.222094
v 0.084927 -0.042777 0.058038
v 0.081279 0.277946 0.199724
v 0.081279 0.277946 0.199724
v 0.026631 -0.042508 0.069414
v 0.024628 0.265288 0.250344
v 0.054793 -0.042638 0.063919
v 0.081279 0.277946 0.199724
v 0.084927 -0.042777 0.058038
v 0.081279 0.277946 0.199724
v 0.054793 -0.042638 0.063919
v 0.026631 -0.042508 0.069414
v 1.003093 0.547699 0.300883
v 0.717003 0.546779 0.153588
v 0.706948 0.587780 0.216716
v 0.706948 0.587780 0.216716
v 0.689243 0.547798 0.266700
v 1.003093 0.547699 0.300883
v 0.490459 0.454896 0.088545
v 0.706948 0.587780 0.216716
v 0.717003 0.546779 0.153588
v 0.462376 0.460036 0.210756
v 0.689243 0.547798 0.266700
v 0.706948 0.587780 0.216716
v 0.706948 0.587780 0.216716
v 0.490459 0.454896 0.088545
v 0.454900 0.492160 0.146745
v 0.706948 0.587780 0.216716
v 0.454900 0.492160 0.146745
v 0.462376 0.460036 0.210756
v 0.490459 0.454896 0.088545
v 0.258950 0.279095 0.094069
v 0.454900 0.492160 0.146745
v 0.258950 0.279095 0.094069
v 0.462376 0.460036 0.210756
v 0.454900 0.492160 0.146745
v 0.490459 0.454896 0.088545
v 0.311896 0.259061 0.038661
v 0.258950 0.279095 0.094069
v 0.462376 0.460036 0.210756
v 0.258950 0.279095 0.094069
v 0.278968 0.267321 0.167503
v 0.311896 0.259061 0.038661
v 0.135929 -0.043096 0.030746
v 0.258950 0.279095 0.094069
v 0.258950 0.279095 0.094069
v 0.120030 -0.042341 0.087970
v 0.278968 0.267321 0.167503
v 0.127710 -0.042706 0.060326
v 0.258950 0.279095 0.094069
v 0.135929 -0.043096 0.030746
v 0.258950 0.279095 0.094069
v 0.127710 -0.042706 0.060326
v 0.120030 -0.042341 0.087970
vn -0.1221 0.8345 -0.5373
vn -0.1189 0.7800 0.6144
vn -0.5257 0.7028 -0.4794
vn -0.4751 0.6641 0.5773
vn -0.4987 0.6907 -0.5237
vn -0.4916 0.6732 0.5524
vn -0.7633 0.4027 -0.5052
vn -0.7331 0.3827 0.5622
vn -0.7644 0.4043 -0.5023
vn -0.7633 0.4234 0.4880
vn -0.8428 0.1504 -0.5167
vn -0.8370 0.1432 0.5281
vn -0.9927 0.1207 -0.0000
vn 0.5508 0.8345 -0.0157
vn -0.5797 0.7800 -0.2357
vn 0.5721 0.7028 -0.4228
vn -0.4743 0.6641 -0.5780
vn 0.6104 0.6907 -0.3878
vn -0.4467 0.6732 -0.5893
vn 0.6435 0.4027 -0.6509
vn -0.4095 0.3827 -0.8282
vn 0.6409 0.4043 -0.6526
vn -0.3309 0.4234 -0.8434
vn 0.6702 0.1504 -0.7267
vn -0.3559 0.1432 -0.9235
vn 0.1923 0.1207 -0.9739
vn -0.1340 0.8345 0.5344
vn 0.3838 0.7800 -0.4942
vn 0.2521 0.7028 0.6652
vn 0.6848 0.6641 -0.3001
vn 0.2080 0.6907 0.6926
vn 0.6882 0.6732 -0.2704
vn 0.4524 0.4027 0.7957
vn 0.9081 0.3827 -0.1700
vn 0.4547 0.4043 0.7936
vn 0.9015 0.4234 -0.0902
vn 0.5181 0.1504 0.8420
vn 0.9854 0.1432 -0.0926
vn 0.8854 0.1207 0.4488
vn 0.2666 0.8345 -0.4822
vn -0.4978 0.7800 0.3792
vn -0.0730 0.7028 -0.7077
vn -0.7389 0.6641 0.1144
vn -0.0234 0.6907 -0.7228
vn -0.7346 0.6732 0.0848
vn -0.2331 0.4027 -0.8852
vn -0.9213 0.3827 -0.0687
vn -0.2358 0.4043 -0.8837
vn -0.8944 0.4234 -0.1441
vn -0.2848 0.1504 -0.9467
vn -0.9761 0.1432 -0.1634
vn -0.7406 0.1207 -0.6610
vn -0.5491 0.8345 -0.0457
vn 0.5499 0.7800 0.2987
vn -0.6156 0.7028 0.3566
vn 0.4071 0.6641 0.6271
vn -0.6498 0.6907 0.3175
vn 0.3784 0.6732 0.6353
vn -0.7119 0.4027 0.5753
vn 0.3148 0.3827 0.8686
vn -0.7095 0.4043 0.5772
vn 0.2350 0.4234 0.8749
vn -0.7469 0.1504 0.6477
vn 0.2509 0.1432 0.9573
vn -0.2995 0.1207 0.9464
vn 0.3195 0.8345 0.4489
vn -0.1267 0.7800 -0.6128
vn 0.6696 0.7028 0.2402
vn 0.2164 0.6641 -0.7157
vn 0.6618 0.6907 0.2915
vn 0.2412 0.6732 -0.6990
vn 0.8989 0.4027 0.1726
vn 0.4603 0.3827 -0.8010
vn 0.8988 0.4043 0.1695
vn 0.5167 0.4234 -0.7442
vn 0.9768 0.1504 0.1526
vn 0.5694 0.1432 -0.8095
vn 0.9162 0.1207 -0.3820
vn -0.2158 0.8280 -0.5175
vn 0.4731 0.7820 0.4058
vn -0.5178 0.8284 -0.2136
vn 0.1530 0.7822 0.6040
vn -0.5273 0.8083 -0.2620
vn 0.1277 0.7958 0.5919
vn -0.7861 0.6168 -0.0393
vn -0.1196 0.5948 0.7950
vn -0.7848 0.6187 -0.0366
vn -0.1776 0.6423 0.7456
vn -0.9146 0.4016 0.0462
vn -0.2772 0.3992 0.8740
vn -0.7212 0.4229 0.5486
vn -0.5333 0.8318 0.1537
vn 0.5382 0.7982 -0.2706
vn -0.3206 0.7896 0.5232
vn 0.6442 0.7597 0.0886
vn -0.3703 0.7713 0.5176
vn 0.6262 0.7717 0.1111
vn -0.2297 0.5463 0.8055
vn 0.7507 0.5392 0.3818
vn -0.2267 0.5481 0.8051
vn 0.6890 0.5840 0.4292
vn -0.1874 0.3164 0.9299
vn 0.7796 0.3266 0.5344
vn 0.3488 0.3282 0.8779
vn -0.1174 0.8300 0.5452
vn -0.0201 0.7974 -0.6032
vn 0.3090 0.7969 0.5191
vn 0.3495 0.7669 -0.5383
vn 0.2823 0.7781 0.5612
vn 0.3614 0.7791 -0.5122
vn 0.6074 0.5600 0.5634
vn 0.6641 0.5531 -0.5031
vn 0.6083 0.5619 0.5606
vn 0.6782 0.5983 -0.4268
vn 0.7426 0.3330 0.5811
vn 0.8182 0.3438 -0.4609
vn 0.9341 0.3484 0.0777
vn 0.2908 0.8443 0.4501
vn -0.4888 0.7770 -0.3967
vn 0.5604 0.8198 0.1180
vn -0.1905 0.7567 -0.6254
vn 0.5742 0.8017 0.1663
vn -0.1637 0.7701 -0.6166
vn 0.8036 0.5909 -0.0709
vn 0.0560 0.5511 -0.8326
vn 0.8020 0.5927 -0.0735
vn 0.1200 0.5990 -0.7917
vn 0.9165 0.3677 -0.1574
vn 0.1990 0.3467 -0.9166
vn 0.6741 0.3711 -0.6386
vn 0.5538 0.8326 0.0128
vn -0.5791 0.7846 0.2214
vn 0.4156 0.8205 -0.3925
vn -0.6145 0.7739 -0.1533
vn 0.4633 0.8011 -0.3790
vn -0.5925 0.7872 -0.1710
vn 0.3801 0.5997 -0.7042
vn -0.6632 0.5768 -0.4769
vn 0.3771 0.6015 -0.7043
vn -0.5936 0.6240 -0.5083
vn 0.3621 0.3801 -0.8511
vn -0.6627 0.3763 -0.6475
vn -0.1741 0.3963 -0.9015
vn 0.2538 0.8291 -0.4981
vn -0.0661 0.7905 0.6089
vn -0.1705 0.8137 -0.5557
vn -0.4169 0.7761 0.4731
vn -0.1369 0.7941 -0.5921
vn -0.4230 0.7891 0.4454
vn -0.4637 0.5899 -0.6610
vn -0.7269 0.5760 0.3740
vn -0.4651 0.5918 -0.6584
vn -0.7241 0.6224 0.2972
vn -0.6017 0.3690 -0.7084
vn -0.8779 0.3737 0.2993
vn -0.8867 0.3880 -0.2515
vt 0.770996 0.901428
vt 0.565918 0.945526
vt 0.566895 0.902283
vt 0.567871 0.866943
vt 0.383789 0.947662
vt 0.388184 0.863037
vt 0.386230 0.903076
vt 0.229370 0.903748
vt 0.227051 0.949524
vt 0.231689 0.859741
vt 0.000000 0.925476
vt 0.000000 0.885376
vt 0.000000 0.904724
s 0
f 1/1/1 2/2/1 3/3/1
f 4/3/2 5/4/2 6/1/2
f 7/5/3 8/3/3 9/2/3
f 10/6/4 11/4/4 12/3/4
f 13/3/5 14/5/5 15/7/5
f 16/3/6 17/7/6 18/6/6
f 19/5/7 20/8/7 21/7/7
f 22/8/8 23/6/8 24/7/8
f 25/5/9 26/9/9 27/8/9
f 28/6/10 29/8/10 30/10/10
f 31/9/11 32/11/11 33/8/11
f 34/8/12 35/12/12 36/10/12
f 37/13/13 38/8/13 39/11/13
f 40/8/13 41/13/13 42/12/13
f 43/1/14 44/2/14 45/3/14
f 46/3/15 47/4/15 48/1/15
f 49/5/16 50/3/16 51/2/16
f 52/6/17 53/4/17 54/3/17
f 55/3/18 56/5/18 57/7/18
f 58/3/19 59/7/19 60/6/19
f 61/5/20 62/8/20 63/7/20
f 64/8/21 65/6/21 66/7/21
f 67/5/22 68/9/22 69/8/22
f 70/6/23 71/8/23 72/10/23
f 73/9/24 74/11/24 75/8/24
f 76/8/25 77/12/25 78/10/25
f 79/13/26 80/8/26 81/11/26
f 82/8/26 83/13/26 84/12/26
f 85/1/27 86/2/27 87/3/27
f 88/3/28 89/4/28 90/1/28
f 91/5/29 92/3/29 93/2/29
f 94/6/30 95/4/30 96/3/30
f 97/3/31 98/5/31 99/7/31
f 100/3/32 101/7/32 102/6/32
f 103/5/33 104/8/33 105/7/33
f 106/8/34 107/6/34 108/7/34
f 109/5/35 110/9/35 111/8/35
f 112/6/36 113/8/36 114/10/36
f 115/9/37 116/11/37 117/8/37
f 118/8/38 119/12/38 120/10/38
f 121/13/39 122/8/39 123/11/39
f 124/8/39 125/13/39 126/12/39
f 127/1/40 128/2/40 129/3/40
f 130/3/41 131/4/41 132/1/41
f 133/5/42 134/3/42 135/2/42
f 136/6/43 137/4/43 138/3/43
f 139/3/44 140/5/44 141/7/44
f 142/3/45 143/7/45 144/6/45
f 145/5/46 146/8/46 147/7/46
f 148/8/47 149/6/47 150/7/47
f 151/5/48 152/9/48 153/8/48
f 154/6/49 155/8/49 156/10/49
f 157/9/50 158/11/50 159/8/50
f 160/8/51 161/12/51 162/10/51
f 163/13/52 164/8/52 165/11/52
f 166/8/52 167/13/52 168/12/52
f 169/1/53 170/2/53 171/3/53
f 172/3/54 173/4/54 174/1/54
f 175/5/55 176/3/55 177/2/55
f 178/6/56 179/4/56 180/3/56
f 181/3/57 182/5/57 183/7/57
f 184/3/58 185/7/58 186/6/58
f 187/5/59 188/8/59 189/7/59
f 190/8/60 191/6/60 192/7/60
f 193/5/61 194/9/61 195/8/61
f 196/6/62 197/8/62 198/10/62
f 199/9/63 200/11/63 201/8/63
f 202/8/64 203/12/64 204/10/64
f 205/13/65 206/8/65 207/11/65
f 208/8/65 209/13/65 210/12/65
f 211/1/66 212/2/66 213/3/66
f 214/3/67 215/4/67 216/1/67
f 217/5/68 218/3/68 219/2/68
f 220/6/69 221/4/69 222/3/69
f 223/3/70 224/5/70 225/7/70
f 226/3/71 227/7/71 228/6/71
f 229/5/72 230/8/72 231/7/72
f 232/8/73 233/6/73 234/7/73
f 235/5/74 236/9/74 237/8/74
f 238/6/75 239/8/75 240/10/75
f 241/9/76 242/11/76 243/8/76
f 244/8/77 245/12/77 246/10/77
f 247/13/78 248/8/78 249/11/78
f 250/8/78 251/13/78 252/12/78
f 253/1/79 254/2/79 255/3/79
f 256/3/80 257/4/80 258/1/80
f 259/5/81 260/3/81 261/2/81
f 262/6/82 263/4/82 264/3/82
f 265/3/83 266/5/83 267/7/83
f 268/3/84 269/7/84 270/6/84
f 271/5/85 272/8/85 273/7/85
f 274/8/86 275/6/86 276/7/86
f 277/5/87 278/9/87 279/8/87
f 280/6/88 281/8/88 282/10/88
f 283/9/89 284/11/89 285/8/89
f 286/8/90 287/12/90 288/10/90
f 289/13/91 290/8/91 291/11/91
f 292/8/91 293/13/91 294/12/91
f 295/1/92 296/2/92 297/3/92
f 298/3/93 299/4/93 300/1/93
f 301/5/94 302/3/94 303/2/94
f 304/6/95 305/4/95 306/3/95
f 307/3/96 308/5/96 309/7/96
f 310/3/97 311/7/97 312/6/97
f 313/5/98 314/8/98 315/7/98
f 316/8/99 317/6/99 318/7/99
f 319/5/100 320/9/100 321/8/100
f 322/6/101 323/8/101 324/10/101
f 325/9/102 326/11/102 327/8/102
f 328/8/103 329/12/103 330/10/103
f 331/13/104 332/8/104 333/11/104
f 334/8/104 335/13/104 336/12/104
f 337/1/105 338/2/105 339/3/105
f 340/3/106 341/4/106 342/1/106
f 343/5/107 344/3/107 345/2/107
f 346/6/108 347/4/108 348/3/108
f 349/3/109 350/5/109 351/7/109
f 352/3/110 353/7/110 354/6/110
f 355/5/111 356/8/111 357/7/111
f 358/8/112 359/6/112 360/7/112
f 361/5/113 362/9/113 363/8/113
f 364/6/114 365/8/114 366/10/114
f 367/9/115 368/11/115 369/8/115
f 370/8/116 371/12/116 372/10/116
f 373/13/117 374/8/117 375/11/117
f 376/8/117 377/13/117 378/12/117
f 379/1/118 380/2/118 381/3/118
f 382/3/119 383/4/119 384/1/119
f 385/5/120 386/3/120 387/2/120
f 388/6/121 389/4/121 390/3/121
f 391/3/122 392/5/122 393/7/122
f 394/3/123 395/7/123 396/6/123
f 397/5/124 398/8/124 399/7/124
f 400/8/125 401/6/125 402/7/125
f 403/5/126 404/9/126 405/8/126
f 406/6/127 407/8/127 408/10/127
f 409/9/128 410/11/128 411/8/128
f 412/8/129 413/12/129 414/10/129
f 415/13/130 416/8/130 417/11/130
f 418/8/130 419/13/130 420/12/130
f 421/1/131 422/2/131 423/3/131
f 424/3/132 425/4/132 426/1/132
f 427/5/133 428/3/133 429/2/133
f 430/6/134 431/4/134 432/3/134
f 433/3/135 434/5/135 435/7/135
f 436/3/136 437/7/136 438/6/136
f 439/5/137 440/8/137 441/7/137
f 442/8/138 443/6/138 444/7/138
f 445/5/139 446/9/139 447/8/139
f 448/6/140 449/8/140 450/10/140
f 451/9/141 452/11/141 453/8/141
f 454/8/142 455/12/142 456/10/142
f 457/13/143 458/8/143 459/11/143
f 460/8/143 461/13/143 462/12/143
f 463/1/144 464/2/144 465/3/144
f 466/3/145 467/4/145 468/1/145
f 469/5/146 470/3/146 471/2/146
f 472/6/147 473/4/147 474/3/147
f 475/3/148 476/5/148 477/7/148
f 478/3/149 479/7/149 480/6/149
f 481/5/150 482/8/150 483/7/150
f 484/8/151 485/6/151 486/7/151
f 487/5/152 488/9/152 489/8/152
f 490/6/153 491/8/153 492/10/153
f 493/9/154 494/11/154 495/8/154
f 496/8/155 497/12/155 498/10/155
f 499/13/156 500/8/156 501/11/156
f 502/8/156 503/13/156 504/12/156
