# Blender 4.0.1
# www.blender.org
mtllib Wall.mtl
o wall
v -1.500000 -0.300000 -0.155895
v 1.500000 -0.300000 -0.155895
v -1.500000 -0.300000 0.272913
v 1.500000 -0.300000 0.272913
v -1.500000 -0.300000 0.272913
v 1.500000 -0.300000 -0.155895
v 1.500000 0.700000 -0.241491
v -1.500000 0.700000 -0.241491
v -1.500000 0.700000 0.358509
v 1.500000 0.700000 -0.241491
v -1.500000 0.700000 0.358509
v 1.500000 0.700000 0.358509
v -1.500000 -0.064910 0.272913
v 1.500000 -0.300000 0.272913
v 1.500000 -0.064910 0.272913
v 1.500000 -0.300000 0.272913
v -1.500000 -0.064910 0.272913
v -1.500000 -0.300000 0.272913
v 1.500000 -0.064910 -0.155895
v -1.500000 -0.300000 -0.155895
v -1.500000 -0.064910 -0.155895
v -1.500000 -0.300000 -0.155895
v 1.500000 -0.064910 -0.155895
v 1.500000 -0.300000 -0.155895
v 1.500000 0.477902 0.272913
v -1.500000 0.477902 0.272913
v -1.500000 0.339459 0.272913
v 1.500000 0.477902 0.272913
v -1.500000 0.339459 0.272913
v 1.500000 0.339459 0.272913
v -1.500000 0.477902 -0.155895
v 1.500000 0.477902 -0.155895
v 1.500000 0.339459 -0.155895
v -1.500000 0.477902 -0.155895
v 1.500000 0.339459 -0.155895
v -1.500000 0.339459 -0.155895
v 1.500000 0.339459 0.272913
v -1.500000 0.339459 0.272913
v -1.500000 0.305720 0.210063
v 1.500000 0.339459 0.272913
v -1.500000 0.305720 0.210063
v 1.500000 0.305720 0.210063
v 1.500000 0.305720 -0.093045
v -1.500000 0.305720 -0.093045
v -1.500000 0.339459 -0.155895
v 1.500000 0.305720 -0.093045
v -1.500000 0.339459 -0.155895
v 1.500000 0.339459 -0.155895
v 1.500000 0.700000 0.358509
v -1.500000 0.700000 0.358509
v -1.500000 0.509188 0.358509
v 1.500000 0.700000 0.358509
v -1.500000 0.509188 0.358509
v 1.500000 0.509188 0.358509
v -1.500000 0.700000 -0.241491
v 1.500000 0.700000 -0.241491
v 1.500000 0.509188 -0.241491
v -1.500000 0.700000 -0.241491
v 1.500000 0.509188 -0.241491
v -1.500000 0.509188 -0.241491
v 1.500000 0.509188 0.358509
v -1.500000 0.509188 0.358509
v -1.500000 0.477902 0.272913
v 1.500000 0.509188 0.358509
v -1.500000 0.477902 0.272913
v 1.500000 0.477902 0.272913
v 1.500000 0.477902 -0.155895
v -1.500000 0.477902 -0.155895
v -1.500000 0.509188 -0.241491
v 1.500000 0.477902 -0.155895
v -1.500000 0.509188 -0.241491
v 1.500000 0.509188 -0.241491
v 1.500000 0.305720 0.210063
v -1.500000 0.305720 0.210063
v -1.500000 -0.032898 0.210063
v 1.500000 0.305720 0.210063
v -1.500000 -0.032898 0.210063
v 1.500000 -0.032898 0.210063
v -1.500000 0.305720 -0.093045
v 1.500000 0.305720 -0.093045
v 1.500000 -0.032898 -0.093045
v -1.500000 0.305720 -0.093045
v 1.500000 -0.032898 -0.093045
v -1.500000 -0.032898 -0.093045
v -1.500000 -0.064910 0.272913
v 1.500000 -0.032898 0.210063
v -1.500000 -0.032898 0.210063
v 1.500000 -0.032898 0.210063
v -1.500000 -0.064910 0.272913
v 1.500000 -0.064910 0.272913
v 1.500000 -0.064910 -0.155895
v -1.500000 -0.064910 -0.155895
v -1.500000 -0.032898 -0.093045
v 1.500000 -0.064910 -0.155895
v -1.500000 -0.032898 -0.093045
v 1.500000 -0.032898 -0.093045
v 1.500000 -0.300000 0.272913
v 1.500000 -0.032898 0.210063
v 1.500000 -0.064910 0.272913
v 1.500000 -0.300000 -0.155895
v 1.500000 -0.032898 0.210063
v 1.500000 -0.300000 0.272913
v 1.500000 -0.032898 0.210063
v 1.500000 -0.300000 -0.155895
v 1.500000 -0.032898 -0.093045
v 1.500000 -0.032898 -0.093045
v 1.500000 -0.300000 -0.155895
v 1.500000 -0.064910 -0.155895
v 1.500000 -0.032898 -0.093045
v 1.500000 0.305720 0.210063
v 1.500000 -0.032898 0.210063
v 1.500000 0.305720 0.210063
v 1.500000 -0.032898 -0.093045
v 1.500000 0.305720 -0.093045
v 1.500000 0.477902 -0.155895
v 1.500000 0.305720 -0.093045
v 1.500000 0.339459 -0.155895
v 1.500000 0.477902 -0.155895
v 1.500000 0.305720 0.210063
v 1.500000 0.305720 -0.093045
v 1.500000 0.700000 -0.241491
v 1.500000 0.477902 -0.155895
v 1.500000 0.509188 -0.241491
v 1.500000 0.305720 0.210063
v 1.500000 0.477902 -0.155895
v 1.500000 0.477902 0.272913
v 1.500000 0.700000 -0.241491
v 1.500000 0.477902 0.272913
v 1.500000 0.477902 -0.155895
v 1.500000 0.305720 0.210063
v 1.500000 0.477902 0.272913
v 1.500000 0.339459 0.272913
v 1.500000 0.700000 -0.241491
v 1.500000 0.700000 0.358509
v 1.500000 0.477902 0.272913
v 1.500000 0.477902 0.272913
v 1.500000 0.700000 0.358509
v 1.500000 0.509188 0.358509
v -1.500000 -0.032898 0.210063
v -1.500000 -0.300000 0.272913
v -1.500000 -0.064910 0.272913
v -1.500000 -0.032898 -0.093045
v -1.500000 -0.300000 0.272913
v -1.500000 -0.032898 0.210063
v -1.500000 -0.300000 0.272913
v -1.500000 -0.032898 -0.093045
v -1.500000 -0.300000 -0.155895
v -1.500000 -0.300000 -0.155895
v -1.500000 -0.032898 -0.093045
v -1.500000 -0.064910 -0.155895
v -1.500000 0.305720 0.210063
v -1.500000 -0.032898 -0.093045
v -1.500000 -0.032898 0.210063
v -1.500000 0.305720 -0.093045
v -1.500000 -0.032898 -0.093045
v -1.500000 0.305720 0.210063
v -1.500000 0.305720 -0.093045
v -1.500000 0.477902 -0.155895
v -1.500000 0.339459 -0.155895
v -1.500000 0.305720 0.210063
v -1.500000 0.477902 -0.155895
v -1.500000 0.305720 -0.093045
v -1.500000 0.477902 0.272913
v -1.500000 0.305720 0.210063
v -1.500000 0.339459 0.272913
v -1.500000 0.477902 -0.155895
v -1.500000 0.305720 0.210063
v -1.500000 0.477902 0.272913
v -1.500000 0.700000 0.358509
v -1.500000 0.477902 0.272913
v -1.500000 0.509188 0.358509
v -1.500000 0.700000 0.358509
v -1.500000 0.477902 -0.155895
v -1.500000 0.477902 0.272913
v -1.500000 0.700000 0.358509
v -1.500000 0.700000 -0.241491
v -1.500000 0.477902 -0.155895
v -1.500000 0.477902 -0.155895
v -1.500000 0.700000 -0.241491
v -1.500000 0.509188 -0.241491
vn -0.0000 -1.0000 -0.0000
vn -0.0000 1.0000 -0.0000
vn -0.0000 -0.8811 0.4730
vn -0.0000 -0.0000 1.0000
vn 1.0000 -0.0000 -0.0000
vn -1.0000 -0.0000 -0.0000
vn -0.0000 -0.0000 -1.0000
vn -0.0000 0.8911 0.4539
vn -0.0000 -0.8811 -0.4730
vn -0.0000 -0.9392 -0.3433
vn -0.0000 -0.9392 0.3433
vn -0.0000 0.8911 -0.4539
vt 0.000500 0.640381
vt 0.350342 0.640381
vt 0.000500 0.690430
vt 0.350342 0.690430
vt 0.350342 0.636719
vt 0.000500 0.636719
vt 0.000500 0.566650
vt 0.350342 0.566650
vt 0.350342 0.924744
vt 0.000500 0.924744
vt 0.000500 0.916443
vt 0.350342 0.916443
vt 0.350342 0.538330
vt 0.000500 0.538330
vt 0.000500 0.516113
vt 0.350342 0.516113
vt 0.852539 0.140137
vt 0.782715 0.140137
vt 0.792480 0.114258
vt 0.782715 0.118164
vt 0.778320 0.049805
vt 0.735840 0.070312
vt 0.728516 0.050293
vt 0.000500 0.768921
vt 0.350342 0.741699
vt 0.350342 0.768921
vt 0.000500 0.695557
vt 0.350342 0.711670
vt 0.000500 0.711670
vt 0.000500 0.741699
vt 0.350342 0.695557
vt 0.000500 0.488770
vt 0.350342 0.488770
vt 0.350342 0.510742
vt 0.000500 0.510742
vt 0.350342 0.813232
vt 0.000500 0.773804
vt 0.350342 0.773804
vt 0.000500 0.714111
vt 0.350342 0.722168
vt 0.000500 0.722168
vt 0.792480 0.023926
vt 0.799805 0.054688
vt 0.792480 0.051270
vt 0.842773 0.023926
vt 0.835449 0.054688
vt 0.799805 0.094238
vt 0.842773 0.114258
vt 0.835449 0.094238
vt 0.792480 0.098145
vt 0.771484 0.109375
vt 0.736328 0.109863
vt 0.771484 0.069824
vt 0.718262 0.024414
vt 0.718262 0.046875
vt 0.350342 0.856567
vt 0.000500 0.883972
vt 0.000500 0.856567
vt 0.350342 0.883972
vt 0.350342 0.910950
vt 0.000500 0.910950
vt 0.000500 0.902588
vt 0.350342 0.902588
vt 0.350342 0.563477
vt 0.000500 0.563477
vt 0.000500 0.552979
vt 0.350342 0.714111
vt 0.842773 0.051270
vt 0.852539 0.118164
vt 0.729492 0.141113
vt 0.729004 0.113770
vt 0.788086 0.023926
vt 0.788574 0.045898
vt 0.350342 0.739258
vt 0.000500 0.739258
vt 0.000500 0.723145
vt 0.350342 0.552979
vt 0.350342 0.723145
vt 0.350342 0.899414
vt 0.000500 0.888794
vt 0.350342 0.888794
vt 0.000500 0.813232
vt 0.350342 0.552002
vt 0.000500 0.552002
vt 0.000500 0.543701
vt 0.350342 0.543701
vt 0.842773 0.098145
vt 0.728516 0.066406
vt 0.000500 0.899414
vt 0.000500 0.815186
vt 0.350342 0.815186
vt 0.350342 0.854736
vt 0.000500 0.854736
vt 0.778809 0.065918
vt 0.779297 0.140625
vt 0.779297 0.113281
s 0
f 1/1/1 2/2/1 3/3/1
f 4/4/1 5/3/1 6/2/1
f 7/5/2 8/6/2 9/7/2
f 10/5/2 11/7/2 12/8/2
f 37/9/3 38/10/3 39/11/3
f 40/9/3 41/11/3 42/12/3
f 49/13/4 50/14/4 51/15/4
f 52/13/4 53/15/4 54/16/4
f 133/17/5 134/18/5 135/19/5
f 136/19/5 137/18/5 138/20/5
f 166/21/6 167/22/6 168/23/6
s 1
f 13/24/4 14/25/4 15/26/4
f 34/27/7 35/28/7 36/29/7
f 16/25/4 17/24/4 18/30/4
f 31/27/7 32/31/7 33/28/7
f 55/32/7 56/33/7 57/34/7
f 58/32/7 59/34/7 60/35/7
f 76/36/4 77/37/4 78/38/4
f 85/39/8 86/40/8 87/41/8
f 97/42/5 98/43/5 99/44/5
f 100/45/5 101/43/5 102/42/5
f 103/43/5 104/45/5 105/46/5
f 109/46/5 110/47/5 111/43/5
f 118/48/5 119/47/5 120/49/5
f 130/47/5 131/19/5 132/50/5
f 151/22/6 152/51/6 153/52/6
f 154/53/6 155/51/6 156/22/6
f 169/54/6 170/23/6 171/55/6
f 19/56/7 20/57/7 21/58/7
f 22/57/7 23/56/7 24/59/7
f 43/60/9 44/61/9 45/62/9
f 46/60/9 47/62/9 48/63/9
f 67/64/10 68/65/10 69/66/10
f 88/40/8 89/39/8 90/67/8
f 106/46/5 107/45/5 108/68/5
f 121/17/5 122/48/5 123/69/5
f 139/52/6 140/70/6 141/71/6
f 142/51/6 143/70/6 144/52/6
f 178/21/6 179/72/6 180/73/6
f 25/74/4 26/75/4 27/76/4
f 70/64/10 71/66/10 72/77/10
f 112/47/5 113/46/5 114/49/5
f 28/74/4 29/76/4 30/78/4
f 64/79/11 65/80/11 66/81/11
f 73/36/4 74/82/4 75/37/4
f 91/83/12 92/84/12 93/85/12
f 94/83/12 95/85/12 96/86/12
f 115/48/5 116/49/5 117/87/5
f 163/23/6 164/22/6 165/88/6
f 61/79/11 62/89/11 63/80/11
f 79/90/7 80/91/7 81/92/7
f 82/90/7 83/92/7 84/93/7
f 157/53/6 158/21/6 159/94/6
f 124/47/5 125/48/5 126/19/5
f 127/17/5 128/19/5 129/48/5
f 145/70/6 146/51/6 147/95/6
f 148/95/6 149/51/6 150/96/6
f 160/22/6 161/21/6 162/53/6
f 172/54/6 173/21/6 174/23/6
f 175/54/6 176/72/6 177/21/6
